ply
format ascii 1.0
comment Created by Open3D
element vertex 2780
property double x
property double y
property double z
element edge 2779
property int vertex1
property int vertex2
end_header
12.8922 31.2946 10.871
12.8908 31.2841 10.8634
12.8877 31.1849 10.821
12.8854 31.1491 10.8085
12.8558 31.0798 10.7599
12.8391 31.0615 10.7451
12.8181 31.0411 10.7266
12.7381 30.9756 10.6613
12.6694 30.9216 10.6037
12.6288 30.8881 10.5754
12.5949 30.8387 10.5603
12.5733 30.8269 10.5417
12.5516 30.8305 10.5282
12.4889 30.8331 10.475
12.4559 30.829 10.4588
12.4003 30.8181 10.4046
12.3551 30.802 10.3654
12.3345 30.7908 10.3431
12.3015 30.7792 10.3264
12.2567 30.764 10.301
12.2293 30.7531 10.2855
12.2106 30.7459 10.2793
12.194 30.7321 10.2652
12.1813 30.7242 10.2547
12.1609 30.7138 10.239
12.1516 30.7065 10.2289
12.1258 30.6883 10.199
12.1193 30.6808 10.1876
12.0857 30.6521 10.1533
12.069 30.635 10.1378
12.0497 30.6184 10.1176
12.0294 30.5954 10.0996
12.0149 30.5543 10.0797
12.0103 30.5424 10.0739
11.9774 30.5142 10.0411
11.9607 30.5117 10.027
11.9465 30.5087 10.0131
11.9346 30.5057 10.0028
11.9192 30.5027 9.99296
11.8991 30.4977 9.9757
11.8777 30.4918 9.95316
11.866 30.4871 9.94096
11.8496 30.4791 9.92626
11.8259 30.4715 9.90564
11.7998 30.4612 9.8889
11.7288 30.4405 9.83212
11.6659 30.4177 9.79194
11.6444 30.4092 9.7805
11.6236 30.4014 9.76828
11.6045 30.3926 9.75713
11.5744 30.381 9.7399
11.5593 30.3752 9.73094
11.5336 30.3646 9.71635
11.5119 30.3573 9.70768
11.4781 30.3438 9.69394
11.4594 30.3362 9.68799
11.4376 30.3271 9.67733
11.4069 30.3151 9.66497
11.3871 30.3064 9.65561
11.3632 30.2965 9.64664
11.347 30.2917 9.64109
11.3171 30.2775 9.62909
11.3004 30.2717 9.62321
11.2643 30.2545 9.61394
11.2338 30.2421 9.60403
11.2027 30.2263 9.59442
11.1739 30.2098 9.58575
11.1483 30.1927 9.57767
11.1276 30.1754 9.57042
11.1137 30.1771 9.55803
11.1051 30.1784 9.54677
11.0881 30.1742 9.51653
11.0728 30.1709 9.49039
11.0611 30.1701 9.47583
11.045 30.1672 9.45138
11.0318 30.1676 9.44027
11.0151 30.1699 9.42931
10.9852 30.1742 9.40851
10.9614 30.1762 9.39703
10.9188 30.1813 9.37341
10.8758 30.183 9.34816
10.8511 30.1845 9.334
10.8287 30.1876 9.32436
10.8051 30.1929 9.31518
10.7895 30.1951 9.30307
10.7746 30.1906 9.28988
10.7615 30.1852 9.27532
10.7521 30.1817 9.26373
10.7338 30.1776 9.24293
10.7206 30.1748 9.22787
10.7063 30.1727 9.2135
10.6874 30.1717 9.19451
10.6737 30.1688 9.18291
10.6581 30.166 9.1653
10.6348 30.1634 9.14958
10.6242 30.1603 9.14013
10.6043 30.1579 9.12447
10.5853 30.1533 9.1043
10.5749 30.1509 9.09406
10.5646 30.1481 9.08373
10.5518 30.1455 9.07449
10.5274 30.1429 9.05639
10.5159 30.1421 9.04786
10.4899 30.1406 9.03699
10.4748 30.1365 9.02323
10.466 30.1332 9.01327
10.46 30.1284 9.00135
10.4377 30.1135 8.96879
10.4203 30.1013 8.94263
10.4116 30.0937 8.92885
10.4015 30.0869 8.91532
10.3841 30.0766 8.89405
10.369 30.0682 8.87647
10.3578 30.0613 8.86351
10.3424 30.052 8.84675
10.3298 30.0441 8.83302
10.3182 30.0371 8.81969
10.3011 30.024 8.79803
10.2855 30.0133 8.77966
10.2733 30.0044 8.761
10.2541 29.9967 8.73941
10.2246 29.9921 8.71212
10.2156 29.988 8.69252
10.2137 29.9811 8.67923
10.2137 29.9768 8.66425
10.2135 29.9719 8.63923
10.2134 29.9715 8.62231
10.2129 29.9712 8.60283
10.2067 29.9713 8.57745
10.2013 29.9714 8.5623
10.1916 29.9725 8.54008
10.1828 29.9739 8.51923
10.1687 29.9765 8.49229
10.1575 29.978 8.47037
10.1486 29.979 8.45813
10.1356 29.9808 8.43869
10.1179 29.9828 8.41504
10.1031 29.9827 8.39716
10.087 29.9821 8.37772
10.0751 29.9839 8.36423
10.0681 29.9855 8.35328
10.0586 29.9915 8.3335
10.0478 29.9961 8.31533
10.0399 29.9999 8.30032
10.0325 30.0032 8.2854
10.0196 30.0099 8.2655
10.0111 30.0149 8.24676
9.99908 30.0226 8.22481
9.98592 30.0304 8.19354
9.97867 30.0378 8.1739
9.97315 30.0429 8.1617
9.96135 30.053 8.13388
9.95027 30.0617 8.11393
9.93735 30.0719 8.08939
9.92703 30.0795 8.07062
9.91721 30.0869 8.05378
9.90381 30.0978 8.02725
9.89284 30.1046 8.01115
9.88531 30.1102 7.99606
9.87372 30.1186 7.97593
9.86567 30.1247 7.96134
9.85183 30.1379 7.93454
9.84605 30.1432 7.92092
9.84024 30.1489 7.90706
9.83495 30.1533 7.89075
9.8273 30.1593 7.87479
9.82144 30.1647 7.85399
9.81123 30.1718 7.83613
9.80728 30.1752 7.82393
9.80012 30.181 7.80417
9.7973 30.1855 7.79052
9.79218 30.1916 7.77583
9.77632 30.2049 7.74276
9.76873 30.2103 7.72738
9.76004 30.2166 7.71057
9.74916 30.2241 7.6901
9.7409 30.2293 7.67879
9.73442 30.2339 7.66455
9.72533 30.24 7.65239
9.71645 30.2455 7.6368
9.70607 30.2539 7.62057
9.69458 30.2592 7.60226
9.68072 30.271 7.57296
9.6691 30.2802 7.55268
9.65534 30.2904 7.52342
9.64924 30.2993 7.50486
9.64134 30.3077 7.48192
9.63412 30.3159 7.46108
9.62622 30.3262 7.43681
9.62205 30.3349 7.41908
9.61018 30.3496 7.3787
9.60232 30.3615 7.35335
9.59773 30.3682 7.33833
9.59463 30.3745 7.32587
9.59016 30.3858 7.31314
9.58507 30.3973 7.29094
9.58102 30.405 7.27864
9.57635 30.4119 7.26206
9.5723 30.4198 7.24872
9.56539 30.4344 7.22249
9.55899 30.4473 7.19826
9.55311 30.4619 7.17629
9.54414 30.4793 7.14577
9.52797 30.5057 7.11046
9.51349 30.5203 7.09327
9.49579 30.5399 7.07522
9.48417 30.552 7.06134
9.47205 30.5635 7.03577
9.47053 30.5684 7.02436
9.47303 30.5706 7.01014
9.475 30.5739 6.99346
9.47722 30.582 6.95898
9.4764 30.5878 6.94075
9.47588 30.5926 6.92368
9.47433 30.5975 6.90292
9.47362 30.6037 6.87985
9.47358 30.6086 6.8605
9.47284 30.6121 6.84691
9.47201 30.6167 6.81754
9.47369 30.6231 6.79546
9.47434 30.6259 6.77922
9.47479 30.6288 6.76502
9.47529 30.6321 6.75202
9.47642 30.6359 6.73502
9.47555 30.6388 6.72091
9.47556 30.6423 6.70394
9.47701 30.6477 6.68752
9.47666 30.6505 6.67269
9.47742 30.6556 6.65663
9.47764 30.6611 6.63532
9.47819 30.6686 6.6075
9.47893 30.6731 6.59369
9.48125 30.6801 6.56875
9.48183 30.6821 6.55183
9.48385 30.6866 6.53518
9.48584 30.6894 6.50773
9.48781 30.694 6.48311
9.48905 30.6974 6.46544
9.49024 30.7006 6.4484
9.49146 30.7049 6.43177
9.4931 30.7112 6.40027
9.4936 30.7157 6.38219
9.49585 30.7213 6.36097
9.49498 30.7267 6.34367
9.49686 30.728 6.33011
9.49836 30.7362 6.30486
9.49855 30.7394 6.28501
9.49972 30.7473 6.2668
9.5 30.7518 6.24815
9.49971 30.7558 6.23212
9.50042 30.7609 6.21574
9.50165 30.7655 6.19728
9.50136 30.7686 6.17846
9.501 30.7724 6.15735
9.50206 30.7751 6.13824
9.50273 30.7791 6.11722
9.50326 30.7831 6.09735
9.50356 30.7864 6.08139
9.50338 30.7899 6.06666
9.50266 30.7954 6.02594
9.50378 30.7998 6.00949
9.50436 30.8015 5.99369
9.50661 30.8088 5.95948
9.50797 30.8126 5.93909
9.51106 30.8149 5.91401
9.51071 30.8198 5.89487
9.51156 30.8208 5.88006
9.51161 30.823 5.86566
9.51208 30.8259 5.85107
9.51288 30.8294 5.8328
9.51376 30.8317 5.81462
9.51393 30.8378 5.79698
9.514 30.8428 5.78078
9.51428 30.8493 5.76511
9.51542 30.8539 5.75146
9.51464 30.8558 5.73672
9.51444 30.8585 5.72381
9.52293 30.8633 5.68568
9.53213 30.8643 5.65054
9.53744 30.8617 5.63562
9.54724 30.8555 5.61528
9.55979 30.8471 5.59093
9.57366 30.8371 5.56394
9.58844 30.8257 5.53954
9.604 30.8123 5.51887
9.62336 30.7914 5.49209
9.62962 30.7837 5.48273
9.64268 30.7677 5.46145
9.65501 30.7493 5.43169
9.66773 30.7323 5.41052
9.67441 30.7238 5.39873
9.67968 30.716 5.37319
9.67922 30.714 5.35226
9.67678 30.712 5.32045
9.67491 30.7141 5.29957
9.67495 30.718 5.27647
9.67501 30.7202 5.25695
9.67293 30.7181 5.23208
9.67147 30.7156 5.21413
9.66369 30.7103 5.18419
9.66066 30.7053 5.16585
9.66081 30.7057 5.13818
9.66137 30.7021 5.11151
9.6609 30.7008 5.09786
9.65989 30.6994 5.07447
9.65086 30.6959 5.04106
9.6421 30.6932 5.01665
9.63628 30.6917 5.00063
9.63118 30.6896 4.9822
9.62659 30.6899 4.96211
9.6196 30.6859 4.92661
9.61627 30.6845 4.8991
9.61494 30.6835 4.88497
9.6124 30.6805 4.85246
9.61085 30.6772 4.81659
9.61045 30.675 4.7887
9.61088 30.6735 4.76636
9.61181 30.6718 4.7435
9.61283 30.6707 4.72448
9.616 30.6687 4.69415
9.61824 30.6678 4.66999
9.62345 30.6651 4.63738
9.62599 30.6652 4.60601
9.62997 30.6648 4.58481
9.63004 30.6638 4.56164
9.63412 30.6641 4.53953
9.6355 30.6636 4.52079
9.63763 30.663 4.50233
9.64066 30.6635 4.47643
9.64286 30.6624 4.4477
9.64692 30.6633 4.41959
9.64995 30.6612 4.39887
9.64933 30.659 4.36877
9.65141 30.6575 4.33737
9.65163 30.6575 4.31637
9.65015 30.6581 4.29209
9.64741 30.6585 4.26442
9.64413 30.6596 4.24233
9.64227 30.6596 4.22894
9.63901 30.6626 4.20571
9.63561 30.6632 4.17391
9.63419 30.6644 4.15854
9.63198 30.6652 4.13586
9.63058 30.6662 4.11772
9.62912 30.6675 4.1009
9.62721 30.6702 4.07618
9.62527 30.6736 4.04538
9.62323 30.6766 4.01081
9.62217 30.6787 3.99099
9.62079 30.6826 3.95894
9.61909 30.6853 3.9352
9.61634 30.6906 3.89651
9.61524 30.6938 3.86916
9.61469 30.697 3.84369
9.61327 30.7009 3.81151
9.61204 30.7041 3.78928
9.60941 30.706 3.77008
9.60603 30.7076 3.75572
9.59603 30.7099 3.72215
9.59167 30.7107 3.70848
9.5838 30.7127 3.6874
9.58012 30.7153 3.65942
9.57211 30.7161 3.63961
9.56643 30.7166 3.62477
9.55965 30.718 3.60454
9.55465 30.7187 3.58677
9.54733 30.7208 3.55583
9.54173 30.7228 3.52881
9.5373 30.7253 3.50305
9.53263 30.7278 3.47659
9.5281 30.7306 3.45104
9.52034 30.7368 3.40545
9.51505 30.7424 3.36651
9.50998 30.746 3.34253
9.50717 30.7524 3.30731
9.5025 30.7562 3.29474
9.49989 30.7578 3.27227
9.49229 30.764 3.24325
9.48685 30.7694 3.21772
9.48262 30.774 3.19851
9.47935 30.7793 3.18065
9.47469 30.7842 3.15944
9.4697 30.789 3.13722
9.46431 30.7938 3.114
9.45856 30.7986 3.09004
9.44976 30.8055 3.05722
9.44584 30.8087 3.0406
9.44036 30.813 3.02195
9.43238 30.8194 2.99446
9.42454 30.8249 2.97115
9.41356 30.8322 2.94141
9.40282 30.839 2.91438
9.39184 30.8441 2.89309
9.37854 30.8495 2.87354
9.36297 30.8542 2.85627
9.34986 30.8587 2.84041
9.33898 30.8628 2.82638
9.33153 30.8663 2.8136
9.32803 30.8694 2.80155
9.32812 30.8721 2.78977
9.33065 30.8745 2.77765
9.33404 30.8768 2.76452
9.33926 30.8784 2.75035
9.33931 30.8812 2.73602
9.33894 30.8831 2.72138
9.33443 30.8857 2.68844
9.33075 30.8877 2.66154
9.32844 30.8894 2.64163
9.32677 30.8917 2.61934
9.32527 30.8937 2.5983
9.32351 30.8952 2.57745
9.3218 30.8955 2.56109
9.32017 30.8953 2.54545
9.32054 30.8997 2.52607
9.31723 30.9012 2.50978
9.31511 30.9061 2.4907
9.31126 30.9131 2.45506
9.30924 30.9192 2.4243
9.30753 30.9218 2.40334
9.30604 30.9248 2.3809
9.30537 30.9269 2.36325
9.3049 30.9316 2.32404
9.30552 30.9363 2.28643
9.30656 30.9405 2.25765
9.30705 30.9437 2.23803
9.30751 30.9461 2.21989
9.30858 30.9481 2.20293
9.30858 30.9509 2.18207
9.31219 30.9533 2.16251
9.3153 30.9569 2.13059
9.31593 30.9585 2.11237
9.31825 30.9645 2.07784
9.31962 30.9687 2.04459
9.32262 30.9735 2.01039
9.3241 30.9784 1.9836
9.32513 30.9819 1.9644
9.32724 30.9875 1.93485
9.32755 30.9949 1.91099
9.32757 31.0026 1.889
9.32734 31.0083 1.87635
9.32612 31.0133 1.86128
9.32989 31.0207 1.8476
9.33091 31.0283 1.82763
9.33437 31.0361 1.80772
9.33881 31.0446 1.78273
9.34186 31.0498 1.76127
9.34505 31.0534 1.74288
9.34826 31.0567 1.72649
9.35391 31.0611 1.70012
9.36239 31.0674 1.66664
9.37104 31.0718 1.62873
9.37498 31.074 1.61217
9.38127 31.0775 1.58523
9.39088 31.0828 1.54516
9.39422 31.0847 1.52081
9.40115 31.0857 1.50021
9.40521 31.0888 1.48603
9.41467 31.0938 1.45421
9.42393 31.098 1.42332
9.42915 31.1006 1.3994
9.43454 31.1026 1.37965
9.44002 31.1046 1.35873
9.44211 31.1064 1.33836
9.44841 31.106 1.31219
9.45354 31.107 1.28375
9.4613 31.1098 1.2584
9.46286 31.1088 1.23917
9.46677 31.1101 1.22637
9.46853 31.1094 1.21252
9.47235 31.1082 1.19196
9.47772 31.1071 1.16728
9.48347 31.1066 1.14121
9.48833 31.1065 1.11845
9.49236 31.1063 1.09718
9.49496 31.1052 1.07739
9.49716 31.103 1.05647
9.50078 31.1008 1.0257
9.50507 31.0987 0.995059
9.50941 31.0975 0.978556
9.51862 31.0964 0.941492
9.52492 31.1004 0.924415
9.52948 31.1023 0.901698
9.53912 31.1058 0.876832
9.54592 31.1085 0.858569
9.55204 31.1107 0.842647
9.55744 31.1122 0.828195
9.5622 31.1132 0.813727
9.56659 31.114 0.797725
9.57081 31.1151 0.779359
9.575 31.1167 0.758463
9.57921 31.1188 0.735562
9.58455 31.1217 0.706542
9.58848 31.1252 0.684385
9.59166 31.1278 0.665836
9.59456 31.1299 0.647614
9.60268 31.1349 0.600721
9.60754 31.1369 0.575266
9.61168 31.1384 0.556139
9.61739 31.1404 0.528327
9.62422 31.1426 0.49441
9.6307 31.1463 0.455018
9.6346 31.1501 0.426219
9.64066 31.152 0.410366
9.64836 31.1565 0.382428
9.64864 31.1552 0.365882
9.65058 31.1552 0.35602
9.6521 31.1549 0.355243
9.65379 31.1549 0.361026
9.65619 31.1559 0.366506
9.65904 31.1584 0.356497
9.66174 31.1628 0.311399
9.66399 31.1694 0.215463
9.665 31.1786 0.048306
12.6427 30.7032 10.691
12.6342 30.7101 10.683
12.6249 30.7298 10.6607
12.6206 30.7527 10.6392
12.6178 30.7762 10.6182
12.6132 30.7975 10.5978
12.6035 30.8139 10.5777
12.5854 30.8227 10.558
12.9933 31.1203 10.8418
12.8678 31.0958 10.7704
12.894 31.2399 10.8388
12.9676 31.1067 10.7962
12.6709 30.6255 10.7376
12.65 30.6639 10.7193
12.6896 30.7474 10.699
12.875 31.1088 10.7762
12.7929 31.0193 10.7048
12.7525 30.9847 10.6669
12.7027 30.9538 10.6345
12.323 30.9727 10.4716
12.2564 30.8458 10.3752
12.242 30.757 10.2947
12.2794 30.8989 10.4196
12.3076 30.9367 10.4473
12.7415 30.0638 10.7023
12.6752 30.1099 10.6731
12.6214 30.1487 10.6428
12.5414 30.2097 10.58
12.5101 30.2343 10.548
12.4262 30.2978 10.4504
12.3937 30.3238 10.4094
12.3708 30.3391 10.3799
12.3392 30.3575 10.3427
12.295 30.386 10.2942
12.2727 30.3949 10.2755
12.2541 30.4003 10.2617
12.1828 30.4271 10.2044
12.1302 30.4422 10.1658
12.0763 30.466 10.126
12.0461 30.4774 10.1032
12.0218 30.4959 10.0822
11.9974 30.5094 10.0624
12.5776 30.1816 10.6117
12.4761 30.2608 10.5089
12.4677 30.2652 10.4993
12.3047 31.3514 10.1561
12.2643 31.3443 10.1534
12.166 31.292 10.1546
12.0841 31.2505 10.1346
12.061 31.2348 10.1349
12.0177 31.2097 10.1278
11.9331 31.155 10.1103
11.8409 31.0771 10.0776
11.7874 31.059 10.0509
11.7689 31.049 10.0381
11.7263 31.0336 10.0148
11.652 31.0214 9.97377
11.6212 31.0174 9.95493
11.6016 31.0178 9.94871
11.5862 30.9944 9.9325
11.5745 30.978 9.92308
11.5603 30.9616 9.91069
11.5459 30.9416 9.89426
11.5236 30.91 9.86696
11.49 30.8693 9.83776
11.4526 30.8253 9.81367
11.4281 30.7914 9.7983
11.4071 30.7596 9.79272
11.3875 30.7386 9.785
11.3618 30.7197 9.77427
11.3433 30.7088 9.76461
11.328 30.6979 9.75381
11.2919 30.6758 9.73606
11.2598 30.652 9.72276
11.2382 30.6405 9.7137
11.2088 30.6208 9.70003
11.1894 30.6134 9.69114
11.1751 30.6 9.68359
11.1618 30.5884 9.67686
11.1431 30.5747 9.66962
11.1272 30.5615 9.66148
11.1092 30.5444 9.65187
11.0883 30.5251 9.63784
11.0745 30.5096 9.62683
11.0609 30.4988 9.61689
11.0435 30.4859 9.60422
11.0198 30.4658 9.59098
11.0053 30.4557 9.58079
10.9814 30.4391 9.56581
10.9708 30.4306 9.55726
10.9591 30.4219 9.54853
10.9339 30.4063 9.52914
10.9067 30.3836 9.50761
10.888 30.3687 9.4858
10.8746 30.3564 9.47124
10.8551 30.334 9.438
10.8335 30.3056 9.40774
10.8253 30.2939 9.39481
10.8076 30.2582 9.35789
10.7941 30.2193 9.32565
10.7894 30.207 9.31267
12.3714 31.3454 10.1629
10.1079 31.5798 10.5119
10.1186 31.5546 10.4911
10.1311 31.5352 10.4668
10.1371 31.5144 10.4481
10.1467 31.4922 10.4239
10.1555 31.4678 10.408
10.1783 31.4198 10.3309
10.2086 31.3667 10.287
10.2197 31.3439 10.2656
10.2299 31.3214 10.251
10.2393 31.3008 10.2369
10.2536 31.2732 10.2139
10.2725 31.2417 10.1888
10.2808 31.2261 10.1774
10.3023 31.1905 10.1489
10.3216 31.1564 10.1223
10.3337 31.1365 10.1048
10.3567 31.1103 10.0715
10.391 31.0636 10.0254
10.4332 31.0398 9.9801
10.474 31.0236 9.95249
10.4652 31.0114 9.93886
10.4574 30.996 9.92274
10.4531 30.9857 9.91178
10.4478 30.9701 9.8945
10.441 30.9394 9.86464
10.4383 30.9249 9.8471
10.4388 30.9181 9.83082
10.4364 30.8975 9.80568
10.4371 30.8862 9.78194
10.4372 30.8754 9.76243
10.4381 30.8557 9.73374
10.4386 30.8421 9.71484
10.4419 30.8226 9.68795
10.4475 30.7993 9.65078
10.448 30.7897 9.64003
10.453 30.7667 9.60847
10.4564 30.7513 9.58689
10.4591 30.7398 9.56827
10.4617 30.7292 9.54804
10.4639 30.7208 9.53216
10.4647 30.7113 9.51662
10.4664 30.6994 9.49703
10.4697 30.681 9.47707
10.4752 30.6628 9.45504
10.4767 30.6523 9.4427
10.4819 30.629 9.4166
10.4869 30.6109 9.39888
10.4893 30.5989 9.38357
10.4926 30.5813 9.36742
10.4953 30.5634 9.34937
10.4969 30.5433 9.33211
10.4971 30.5301 9.32335
10.4991 30.5115 9.30438
10.4992 30.4931 9.28792
10.4974 30.4768 9.27546
10.4952 30.4503 9.25779
10.4946 30.4355 9.24791
10.4952 30.4183 9.23436
10.4947 30.3956 9.21566
10.493 30.3812 9.20236
10.4918 30.3636 9.18881
10.4901 30.35 9.17913
10.4871 30.3351 9.16767
10.4823 30.3145 9.15481
10.4779 30.2964 9.14268
10.4745 30.273 9.1247
10.4735 30.2548 9.11274
10.47 30.2359 9.09538
10.4675 30.2138 9.07933
10.4709 30.179 9.06082
10.474 30.1536 9.0458
12.2075 31.322 10.1473
11.7161 31.3576 10.0903
11.6717 31.2624 10.051
11.657 31.2183 10.0444
11.6527 31.1374 10.0285
11.6429 31.1143 10.0075
11.6294 31.0907 9.99172
11.6167 31.0678 9.97907
11.6094 31.0455 9.96369
11.7036 31.3206 10.0739
11.689 31.2938 10.0625
12.1363 31.3222 10.2202
11.5174 31.2661 10.2055
11.6551 31.1601 10.0576
11.975 31.1833 10.1198
10.8821 31.5554 10.1484
10.8716 31.5141 10.1276
10.8465 31.462 10.1022
10.8249 31.3997 10.0551
10.7982 31.3521 10.0333
10.7233 31.2443 9.99325
10.6911 31.2129 9.98367
10.656 31.1849 9.97776
10.6182 31.1608 9.97623
10.5782 31.1409 9.97961
10.5364 31.1257 9.98871
10.5284 31.1094 9.98373
10.5182 31.0957 9.97311
10.4985 31.067 9.96161
10.4888 31.0514 9.95857
11.5674 31.2362 10.1582
11.5949 31.2134 10.1364
11.5493 31.2475 10.1668
10.5267 31.3827 10.3268
10.5443 31.3759 10.279
10.5746 31.3561 10.2167
10.6057 31.3397 10.1599
10.6064 31.2698 10.0764
10.5933 31.241 10.0673
10.5744 31.2056 10.0487
10.5699 31.1889 10.0383
10.5443 31.1436 10.0103
11.8835 31.0567 10.1556
11.8968 31.1265 10.1003
11.8703 31.0991 10.0903
10.7058 31.5906 10.2499
10.6614 31.4964 10.2253
10.6285 31.41 10.1714
10.6244 31.298 10.0937
10.6883 31.5448 10.2393
10.6745 31.5157 10.2348
9.58717 28.8092 10.4509
9.59578 28.8245 10.4459
9.60525 28.8371 10.4365
9.61638 28.921 10.3756
9.61783 28.9363 10.3697
9.61759 28.9641 10.3523
9.61396 28.9889 10.3326
9.61384 29.0013 10.3241
9.61362 29.0266 10.3118
9.61227 29.0394 10.3025
9.61108 29.0742 10.2808
9.61095 29.1032 10.2671
9.60924 29.1265 10.2575
9.6056 29.1456 10.2494
9.60061 29.1803 10.2404
9.59533 29.2235 10.2302
9.59107 29.2703 10.217
9.58654 29.2967 10.2093
9.58845 29.3303 10.1894
9.58628 29.3513 10.1784
9.58778 29.367 10.1661
9.59089 29.3816 10.1578
9.60115 29.4059 10.1258
9.61088 29.4217 10.1051
9.61619 29.4303 10.0939
9.62853 29.4488 10.0668
9.63772 29.4637 10.048
9.64806 29.4794 10.0302
9.66409 29.507 9.99489
9.67451 29.5259 9.9671
9.68386 29.5444 9.94131
9.69408 29.569 9.90683
9.70114 29.5801 9.88893
9.70618 29.5907 9.87556
9.7112 29.5977 9.86124
9.7197 29.611 9.84231
9.74062 29.6436 9.8217
9.74929 29.6607 9.81427
9.76164 29.6874 9.79586
9.76202 29.6897 9.7804
9.76172 29.6894 9.7645
9.76246 29.6908 9.7485
9.76755 29.6955 9.72151
9.77507 29.7039 9.69198
9.78104 29.7092 9.67207
9.79278 29.7175 9.64078
9.80236 29.7221 9.61312
9.81225 29.7286 9.58425
9.82581 29.733 9.55274
9.83939 29.7412 9.52209
9.84948 29.7458 9.49757
9.85887 29.7504 9.47713
9.87379 29.7549 9.44459
9.88353 29.759 9.41938
9.90035 29.7614 9.38977
9.91222 29.7629 9.36022
9.91827 29.7648 9.34838
9.92353 29.7673 9.33223
9.9292 29.7804 9.30278
9.93124 29.7873 9.28946
9.93611 29.8011 9.26502
9.94279 29.8173 9.23987
9.95268 29.8354 9.21679
9.9592 29.8502 9.19624
9.96747 29.8666 9.1719
9.97757 29.879 9.15072
9.98907 29.8905 9.12955
9.9973 29.8977 9.11567
10.0111 29.9102 9.09037
10.0204 29.9179 9.06817
10.0268 29.9225 9.05458
10.0382 29.9313 9.02366
10.0442 29.935 9.00896
10.0544 29.9421 8.98116
10.0629 29.947 8.96465
10.0694 29.9505 8.94721
10.0766 29.955 8.92743
10.0836 29.9575 8.91102
10.0953 29.965 8.87044
10.1053 29.969 8.84122
10.1126 29.9726 8.81991
10.1172 29.975 8.80432
10.125 29.976 8.78978
10.1411 29.9802 8.77245
10.1559 29.9831 8.75675
10.1732 29.9855 8.73926
10.1931 29.9873 8.71842
9.70234 28.8875 10.5287
9.69822 28.8807 10.5169
9.65334 28.8493 10.3891
9.65102 28.8467 10.4923
9.40432 30.0352 11.0048
9.39234 29.9897 10.975
9.38037 29.9399 10.9354
9.36889 29.9039 10.9162
9.33545 29.8265 10.8703
9.31598 29.7702 10.8339
9.31003 29.6595 10.7417
9.31709 29.6312 10.7034
9.33029 29.6218 10.6837
9.34048 29.6118 10.6597
9.35495 29.5993 10.6296
9.3649 29.5909 10.6089
9.40342 29.5616 10.5401
9.44987 29.5345 10.4661
9.48998 29.4888 10.372
9.53055 29.4544 10.2893
9.56699 29.4238 10.2115
9.59479 29.4015 10.1466
9.41776 30.1153 11.0537
9.41287 30.077 11.0312
10.3749 30.166 10.3237
10.3706 30.2493 10.3113
10.3657 30.2743 10.2994
10.3726 30.3257 10.2898
10.3767 30.3424 10.2859
10.3834 30.394 10.2747
10.383 30.4379 10.2683
10.3862 30.5249 10.2522
10.3849 30.5408 10.2386
10.3814 30.5526 10.2283
10.3806 30.5723 10.2147
10.3754 30.5914 10.2001
10.3714 30.6184 10.1804
10.3703 30.6306 10.166
10.3688 30.6825 10.1288
10.3717 30.7221 10.0901
10.376 30.7646 10.0481
10.384 30.8038 10.0081
10.4006 30.8784 9.94419
9.60855 28.8788 10.4114
9.61078 28.8897 10.3909
10.6389 31.4578 10.1898
10.7696 31.3012 10.017
10.7524 31.2791 10.0062
10.7007 31.2733 10.0674
10.6806 31.2707 10.0493
10.6625 31.2611 10.0347
10.645 31.2467 10.0256
10.6258 31.2307 10.0237
10.603 31.2159 10.0309
10.6852 31.3857 10.1216
10.6259 31.343 10.1281
10.6173 31.2812 10.0808
10.7841 31.2217 10.1179
10.7514 31.2505 10.1041
9.41948 30.1512 11.0719
11.6925 30.7878 10.2162
11.675 30.76 10.182
11.6289 30.7176 10.1033
11.5781 30.6948 10.0246
11.5537 30.6916 9.98927
11.5257 30.7017 9.94863
11.5049 30.7068 9.9257
11.4579 30.7131 9.86592
11.6845 30.834 10.2381
11.6602 31.034 10.0462
11.7821 30.8027 10.248
10.7239 31.2672 10.0864
12.0474 29.7201 9.96341
12.0296 29.7209 9.95037
12.0108 29.721 9.94542
11.9741 29.7259 9.91749
11.9638 29.7277 9.89537
11.9567 29.728 9.87566
11.9491 29.7289 9.85643
11.9368 29.73 9.83388
11.9285 29.735 9.81977
11.9109 29.7437 9.79791
11.8871 29.7543 9.77358
11.8155 29.7898 9.72031
11.7653 29.8182 9.6926
11.7325 29.8321 9.6739
11.7087 29.8427 9.66235
11.6841 29.8546 9.64936
11.6184 29.8812 9.6163
11.5594 29.9059 9.59
11.528 29.9159 9.57405
11.4879 29.9227 9.55259
11.4609 29.9345 9.53896
11.4435 29.9489 9.52947
11.4059 29.9728 9.51222
11.3882 29.9823 9.50522
11.3438 30.0021 9.48934
11.2942 30.0228 9.47621
11.266 30.035 9.46677
11.2507 30.0422 9.46279
11.2174 30.0555 9.45614
11.1667 30.0863 9.44531
11.1157 30.1104 9.43949
11.071 30.1482 9.44642
11.4546 29.9473 10.0321
11.449 29.9544 10.0212
11.4314 30.0044 9.97325
11.3927 30.0852 9.94428
11.3927 30.0812 9.9385
11.3702 30.086 9.9091
11.3313 30.0965 9.86461
11.2823 30.1096 9.81394
11.2296 30.1235 9.76395
11.1797 30.1375 9.71956
11.1394 30.1507 9.68599
11.1377 30.1515 9.66787
11.136 30.1606 9.63388
11.1298 30.1632 9.60733
11.1247 30.1693 9.58758
11.6531 30.7365 10.1433
10.5696 31.2616 10.0697
10.5609 31.252 10.0491
9.00766 28.9889 10.6462
9.30162 29.1079 10.4741
9.31433 29.1382 10.462
9.31871 29.1485 10.4572
9.33399 29.176 10.4392
9.36275 29.2095 10.4302
9.38042 29.2297 10.4217
9.39714 29.2484 10.4149
9.41693 29.2613 10.3947
9.43726 29.2711 10.3517
9.47556 29.2865 10.2998
9.53707 29.3036 10.2449
9.57751 29.3278 10.2119
11.6033 30.7036 10.0628
9.27977 29.0141 10.4983
9.28145 29.0272 10.5
11.9858 29.6244 9.95267
11.9792 29.6487 9.94413
11.9783 29.6655 9.93458
9.14202 29.5945 10.8285
9.30483 29.6445 10.7575
9.07076 29.0096 10.618
9.29082 29.0718 10.4867
9.2035 29.0597 10.5599
9.14143 29.0363 10.5891
10.7917 30.6225 10.3546
10.744 30.6263 10.3605
10.6401 30.5794 10.3505
10.5866 30.5491 10.3355
10.4655 30.5158 10.2863
9.24987 29.0642 10.5305
11.4994 30.0708 10.0233
11.4804 30.0713 10.0232
9.30273 29.7207 10.7994
9.29932 29.6821 10.7681
11.4593 30.15 10.0569
11.4558 30.1225 10.0266
9.8326 29.0541 10.3149
9.77314 29.0733 10.2908
9.71226 29.097 10.2688
9.6557 29.1174 10.2555
9.19145 29.611 10.8049
9.25551 29.628 10.7799
10.6931 30.6086 10.359
11.8619 29.4021 9.72208
11.7821 29.467 9.70746
11.7237 29.5223 9.68826
11.6945 29.5461 9.67492
11.6793 29.5607 9.66845
11.6631 29.5735 9.66111
11.6053 29.6407 9.63083
11.5698 29.6885 9.61194
11.5336 29.7392 9.5903
11.5035 29.8076 9.56279
11.4849 29.8727 9.55158
11.4718 29.9253 9.54516
9.35358 29.644 10.7506
9.39833 29.2938 10.4727
9.40214 29.285 10.4553
9.40238 29.2813 10.4352
9.41128 29.2646 10.4101
9.422 29.2631 10.3792
9.83589 30.3895 10.7542
9.88974 30.3205 10.6994
9.90003 30.2873 10.6807
9.91506 30.2256 10.5645
9.93169 30.1714 10.4783
9.93 30.1294 10.3942
9.9203 30.1111 10.3633
9.90974 30.0999 10.3425
9.89027 30.0736 10.3013
9.88522 30.064 10.2855
9.87445 30.0363 10.2498
9.86462 30.0106 10.2197
9.84975 29.9636 10.1593
9.8343 29.9119 10.0976
9.82935 29.889 10.0616
9.81802 29.8606 10.0287
9.81279 29.8476 10.0135
9.80266 29.8286 9.98952
9.79768 29.8176 9.97611
9.7895 29.7975 9.95242
9.78572 29.7845 9.9346
9.78183 29.7737 9.92012
9.77559 29.7437 9.88217
9.77106 29.7238 9.85588
9.76712 29.7065 9.83151
9.7639 29.6936 9.8108
10.2226 30.2393 10.5177
10.2105 30.2345 10.5129
10.154 30.2185 10.4926
10.1125 30.2027 10.4803
10.083 30.1915 10.4676
10.0201 30.1762 10.4529
9.96161 30.1506 10.4279
11.0539 30.2668 10.023
11.0612 30.2625 10.0054
11.0651 30.2076 9.92611
11.0962 30.146 9.84816
11.112 30.1422 9.80786
11.1323 30.1447 9.75264
10.8994 30.0656 10.1312
10.9086 30.0835 10.1245
11.0354 30.1548 9.97824
11.7244 28.5559 9.39202
11.7227 28.5445 9.37604
11.7151 28.4796 9.25177
11.7124 28.4655 9.23266
11.6911 28.4376 9.22276
11.6682 28.4097 9.2164
11.6331 28.3989 9.21207
11.598 28.3884 9.20967
11.5587 28.3727 9.20609
11.5271 28.3605 9.20606
11.4828 28.3451 9.21081
11.3873 28.309 9.22547
11.3711 28.3122 9.22895
11.3332 28.3191 9.2383
11.2812 28.3299 9.2523
11.201 28.3479 9.27615
11.1746 28.3643 9.28936
11.09 28.3846 9.31344
11.0506 28.3882 9.31791
11.0307 28.3913 9.31824
11.0056 28.3974 9.31635
10.9372 28.4413 9.29297
10.8904 28.4776 9.2685
10.8608 28.5002 9.25491
10.8367 28.5217 9.24324
10.8086 28.5481 9.22896
10.7923 28.5635 9.22232
10.769 28.5901 9.21381
10.723 28.6319 9.196
10.666 28.6898 9.20761
10.6541 28.7121 9.1841
10.6442 28.7275 9.1682
10.6302 28.7516 9.15074
10.6196 28.7667 9.13894
10.6139 28.7792 9.12963
10.6064 28.7988 9.117
10.5971 28.8232 9.10469
10.5898 28.8444 9.09408
10.5819 28.8587 9.08579
10.5735 28.873 9.07764
10.5603 28.8945 9.06705
10.5526 28.9165 9.056
10.5431 28.9363 9.04592
10.5326 28.9583 9.03559
10.5273 28.9718 9.02723
10.5218 28.9851 9.0197
10.5149 28.9999 9.01212
10.5067 29.0188 9.00265
10.4977 29.0358 8.99528
10.4908 29.0532 8.98622
10.485 29.07 8.97568
10.4741 29.0918 8.96638
10.4639 29.1135 8.95345
10.4571 29.1363 8.93992
10.4407 29.1695 8.91945
10.4306 29.1955 8.90625
10.4224 29.2203 8.89179
10.4168 29.2328 8.88563
10.4065 29.2628 8.86703
10.4002 29.2797 8.8587
10.3884 29.3014 8.84762
10.381 29.3134 8.84016
10.3661 29.3418 8.82632
10.3592 29.3594 8.81677
10.3501 29.373 8.8084
10.3381 29.3935 8.79913
10.3297 29.4065 8.79273
10.3177 29.431 8.78044
10.3105 29.4436 8.77209
10.2995 29.4664 8.76148
10.2903 29.4831 8.75163
10.2781 29.4999 8.74134
10.265 29.5207 8.73124
10.2527 29.5442 8.71638
10.2461 29.5604 8.7088
10.2331 29.5807 8.69501
10.2203 29.6013 8.6765
10.2147 29.6126 8.66687
10.2064 29.6282 8.65618
10.2007 29.6399 8.64613
10.1932 29.6511 8.63778
10.1857 29.6614 8.62872
10.1782 29.6745 8.61841
10.1688 29.6889 8.60361
10.1616 29.6997 8.58959
10.1502 29.7182 8.56986
10.1421 29.7365 8.55163
10.1367 29.7493 8.53712
10.1312 29.7632 8.52435
10.1241 29.7808 8.50808
10.1164 29.7942 8.49567
10.1123 29.8078 8.48579
10.1049 29.8286 8.46903
10.0981 29.8467 8.45457
10.0907 29.8661 8.4386
10.0856 29.8793 8.42699
10.0782 29.9187 8.40195
9.93648 30.3415 10.7345
9.89938 30.3139 10.7187
9.86132 30.3543 10.7129
10.5305 30.526 10.3141
11.0456 30.2963 10.0641
11.1301 29.8572 9.81846
11.1299 29.8962 9.79251
11.1247 29.9873 9.73945
11.1241 30.0386 9.7138
11.1278 30.0935 9.6897
11.9018 27.9023 9.16231
11.8858 27.9145 9.15844
11.8661 27.9238 9.15904
11.8507 27.9359 9.15698
11.7799 27.9707 9.16092
11.6545 28.0255 9.18282
11.6378 28.0353 9.18495
11.6082 28.0544 9.19229
11.5192 28.116 9.20787
11.4743 28.1578 9.21613
11.4337 28.205 9.22296
11.4034 28.2557 9.22642
11.8177 29.4378 9.71474
9.82484 30.298 10.7504
9.88923 30.3048 10.7047
10.9304 30.1016 10.0985
10.9973 30.1376 10.0182
11.7711 28.5232 9.26296
11.7209 28.5327 9.33335
9.42102 28.1429 9.86297
9.47257 28.2182 9.86654
9.51068 28.2724 9.86071
9.59839 28.3561 9.86601
9.6237 28.4135 9.86101
9.62175 28.4512 9.86455
9.6321 28.481 9.86046
9.63593 28.5155 9.85906
9.63863 28.5376 9.85919
9.64117 28.5605 9.85759
9.65505 28.5931 9.84934
9.66228 28.6322 9.83631
9.67036 28.6512 9.82925
9.67894 28.6695 9.82221
9.68803 28.6893 9.81417
9.69787 28.7142 9.80348
9.70838 28.7462 9.78932
9.71902 28.7846 9.77218
9.72899 28.8271 9.75325
9.74297 28.9053 9.71956
9.7453 28.9189 9.71341
9.7484 28.9368 9.70623
9.75507 28.9885 9.68248
9.76005 29.0229 9.66729
9.76503 29.0671 9.64404
9.77121 29.0951 9.63383
9.77993 29.1402 9.6179
9.78784 29.1639 9.61119
9.805 29.2051 9.59503
9.81114 29.2183 9.58928
9.82398 29.2445 9.57683
9.84344 29.2923 9.56156
9.85392 29.328 9.54749
9.85846 29.3417 9.54198
9.87144 29.3899 9.52071
9.88259 29.4292 9.497
9.89107 29.4545 9.48439
9.90046 29.4816 9.47075
9.91125 29.5138 9.44964
9.91625 29.5374 9.43715
9.91921 29.5692 9.42079
9.9218 29.6006 9.40875
9.92331 29.6356 9.39355
9.92313 29.6512 9.38957
9.92197 29.7125 9.37238
11.072 30.1712 9.94814
11.0904 30.1539 9.89903
10.9611 30.1198 10.0607
9.90537 30.2462 10.6074
9.91769 30.2123 10.5416
11.1273 29.9397 9.76593
11.8271 28.4059 9.21245
11.7225 28.3888 9.20638
11.6602 28.3959 9.20786
11.7682 28.4003 9.20631
10.6911 28.8699 10.0115
10.6869 28.841 9.97135
10.6839 28.8066 9.9271
10.6826 28.7754 9.88864
10.6843 28.7472 9.86188
10.6914 28.7129 9.8486
10.6948 28.7053 9.83265
10.6925 28.7009 9.80617
10.6905 28.701 9.76852
10.6915 28.709 9.73158
10.6943 28.7164 9.66893
10.7013 28.7147 9.64611
10.7097 28.7188 9.60529
10.7081 28.7151 9.56041
10.7082 28.7144 9.5355
10.7036 28.7083 9.50196
10.6964 28.7051 9.45858
10.6892 28.7011 9.41919
10.6855 28.6991 9.38827
10.6817 28.6951 9.34142
10.6779 28.6896 9.31127
10.6754 28.6865 9.29254
10.6722 28.6826 9.26274
10.6705 28.6858 9.23151
9.44148 28.1844 9.86542
9.52515 29.2512 10.3204
9.55848 29.2245 10.3203
9.56039 29.2858 10.2911
11.7254 27.998 9.16083
10.7471 28.6715 10.0535
10.7512 28.6619 10.0406
10.7469 28.6622 9.99496
10.7345 28.6715 9.93416
10.7146 28.689 9.87577
10.7037 28.7014 9.86478
10.6728 28.5406 9.95796
10.6978 28.6553 9.91195
9.55777 28.3213 9.86527
9.62572 28.3468 9.89341
9.69792 28.4111 9.85174
9.67446 28.4226 9.85476
10.6831 28.5971 9.93628
9.57395 28.6029 9.91613
9.6007 28.6095 9.9016
9.65436 28.6092 9.84508
11.4239 28.6917 9.53824
11.406 28.635 9.50398
11.3376 28.5191 9.40063
11.285 28.4885 9.36929
11.2088 28.4476 9.33638
11.1138 28.3861 9.30994
11.4594 28.7485 9.60393
11.5037 28.3636 9.27947
11.4775 28.7888 9.62446
11.0422 28.1369 9.73392
11.0539 28.1473 9.70836
11.0697 28.1687 9.64171
11.0894 28.1923 9.54421
11.0939 28.227 9.44004
11.0779 28.2708 9.40771
11.0718 28.2986 9.39003
11.0643 28.3282 9.36997
11.0559 28.3582 9.34807
11.0429 28.111 9.77734
11.376 28.5013 9.47428
11.0449 28.1873 9.78891
11.0607 28.1543 9.68704
10.6536 27.9006 9.66919
10.6509 27.9195 9.65362
10.6442 27.9963 9.60422
10.6407 28.0445 9.57578
10.6378 28.1009 9.53851
10.6356 28.1547 9.51643
10.6342 28.1704 9.5077
10.6325 28.2114 9.48762
10.632 28.226 9.4812
10.6318 28.2449 9.47046
10.6331 28.2767 9.45555
10.6328 28.2998 9.43965
10.6362 28.3474 9.41108
10.6356 28.3619 9.40393
10.6388 28.3901 9.39029
10.6485 28.4593 9.34065
10.6639 28.5246 9.30504
10.671 28.5808 9.27988
10.6745 28.6347 9.26416
11.3804 28.6001 9.45345
11.362 28.5502 9.42241
11.1254 28.088 9.3943
11.0853 28.2474 9.41524
10.7176 28.7577 9.8094
10.7156 28.7571 9.79647
10.7123 28.7574 9.76941
10.6948 28.7315 9.71949
10.6914 28.7225 9.68849
11.0821 28.1804 9.59011
11.095 28.1981 9.51078
11.0968 28.211 9.47245
10.8589 28.8962 9.7068
10.8479 28.8825 9.69814
10.8215 28.8386 9.69115
10.7897 28.7938 9.67249
10.7783 28.7811 9.63506
10.743 28.7494 9.59789
10.8487 28.7791 9.75043
10.8911 28.9796 9.73857
10.917 29.0157 9.75294
10.6477 27.9532 9.63095
11.113 28.1349 9.40175
11.1086 28.2037 9.39051
10.7583 28.7615 9.6652
11.049 28.4715 9.36927
11.0374 28.4571 9.35517
11.0233 28.4636 9.32675
11.157 28.6142 9.48617
11.0826 28.5143 9.40232
11.0293 28.4475 9.34071
11.1878 28.6574 9.52918
11.1292 28.5761 9.45169
11.0641 28.4906 9.3845
11.1043 28.5428 9.42423
9.37433 30.5543 8.08452
9.36603 30.5472 8.05259
9.3648 30.5468 8.03828
9.35962 30.5429 8.01191
9.35564 30.5397 7.98685
9.35309 30.5369 7.95626
9.3523 30.5349 7.92706
9.35272 30.5335 7.90027
9.3551 30.533 7.87365
9.35955 30.5324 7.84995
9.36514 30.5312 7.82009
9.36896 30.53 7.7985
9.3726 30.531 7.77357
9.37485 30.5328 7.75552
9.37596 30.5323 7.73046
9.37643 30.5316 7.71423
9.37948 30.5302 7.69015
9.38401 30.5297 7.66543
9.38455 30.5293 7.64892
9.38551 30.5297 7.6259
9.38532 30.5304 7.61047
9.38541 30.5324 7.58393
9.38667 30.5345 7.55157
9.38791 30.5346 7.52231
9.38914 30.5353 7.50657
9.38971 30.5346 7.49002
9.39011 30.5335 7.46448
9.39057 30.5329 7.44946
9.39199 30.5345 7.42834
9.39236 30.5372 7.4096
9.39247 30.5381 7.39455
9.39352 30.5421 7.37041
9.39535 30.5436 7.34235
9.39524 30.5477 7.32188
9.39471 30.5511 7.29847
9.3949 30.5534 7.28363
9.39543 30.5548 7.26832
9.39621 30.5566 7.24592
9.39755 30.5577 7.22885
9.40306 30.5623 7.19079
9.40839 30.5633 7.16507
9.41545 30.5641 7.14648
9.42767 30.5641 7.12121
9.4401 30.5625 7.10068
9.45817 30.5603 7.07547
9.47063 30.561 7.05372
8.23092 33.1769 8.96299
8.28384 33.1979 8.94711
8.38068 33.2339 8.91205
8.43484 33.2411 8.89848
8.519 33.2319 8.89086
8.5613 33.2245 8.89761
8.58736 33.2232 8.89992
8.63399 33.2097 8.88658
8.69771 33.193 8.85904
8.71601 33.1726 8.84526
8.7473 33.1632 8.8276
8.77063 33.1483 8.81857
8.80044 33.1294 8.80864
8.83643 33.1057 8.79696
8.87798 33.0772 8.78294
8.92813 33.039 8.76766
8.97529 33.0133 8.74626
9.01664 32.9833 8.72314
9.07429 32.9483 8.6988
9.15166 32.9226 8.65458
9.16478 32.9215 8.64825
9.23258 32.9167 8.59564
9.24108 32.9079 8.58483
9.25701 32.8949 8.55991
9.27348 32.8587 8.54432
9.27938 32.8209 8.53503
9.28571 32.798 8.52719
9.29327 32.7701 8.51833
9.30575 32.7385 8.50681
9.32199 32.6972 8.49406
9.34 32.6692 8.47857
9.35804 32.6459 8.46066
9.36697 32.6343 8.44996
9.40294 32.6203 8.43768
9.41836 32.5882 8.40815
9.43061 32.5482 8.37031
9.4405 32.5047 8.32825
9.45029 32.4399 8.26579
9.45395 32.415 8.23872
9.46142 32.3807 8.20439
9.469 32.3546 8.1773
9.47518 32.3433 8.15923
9.48406 32.3197 8.13222
9.48927 32.2953 8.10962
9.49093 32.2753 8.09501
9.49584 32.2427 8.06619
9.4988 32.2059 8.04126
9.49772 32.1667 8.00635
9.50224 32.1388 7.95729
9.50776 32.1349 7.94185
9.51242 32.1319 7.92784
9.51907 32.1271 7.90755
9.52376 32.1198 7.88402
9.53526 32.1112 7.8583
9.55236 32.1007 7.82995
9.57467 32.0859 7.79742
9.59722 32.0749 7.77054
9.62124 32.0579 7.73591
9.63818 32.043 7.69318
9.68176 32.0133 7.64736
9.69157 31.9919 7.61495
9.69719 31.9693 7.58143
9.70077 31.956 7.56025
9.70124 31.9454 7.54145
9.70011 31.9366 7.51949
9.69748 31.924 7.49049
9.69549 31.9137 7.46727
9.69107 31.9015 7.43388
9.68423 31.8907 7.39385
9.67222 31.882 7.36899
9.66776 31.8808 7.35292
9.66145 31.88 7.33903
9.65583 31.8812 7.32775
9.64257 31.8836 7.29938
9.63871 31.8832 7.27988
9.63406 31.8833 7.2651
9.62416 31.8849 7.24162
9.60966 31.8887 7.21193
9.60074 31.8906 7.19669
9.57894 31.8958 7.16784
9.56663 31.8982 7.14545
9.55055 31.9022 7.12197
9.53244 31.9063 7.10438
9.51573 31.9113 7.0855
9.50109 31.9141 7.07168
9.4708 31.917 7.05078
9.44608 31.9192 7.03976
9.41572 31.9255 7.01872
9.41236 31.9316 7.00443
9.41222 31.9394 6.98227
9.4099 31.9475 6.95961
9.40464 31.9552 6.93995
9.39966 31.9605 6.92218
9.39415 31.9654 6.90312
9.38848 31.9706 6.8861
9.37914 31.9775 6.85239
9.36294 31.9882 6.81384
9.35607 31.993 6.80146
9.34402 32.0037 6.76545
9.33124 32.0069 6.73469
9.31695 32.0052 6.70217
9.30995 32.0017 6.68624
9.30249 31.9967 6.66567
9.29676 31.9922 6.6496
9.29237 31.9868 6.63433
9.28914 31.974 6.61313
9.28957 31.9634 6.59982
9.28926 31.9535 6.58264
9.29065 31.9407 6.56567
9.29188 31.9311 6.55196
9.29316 31.9197 6.53628
9.29443 31.9076 6.51887
9.29539 31.8982 6.50651
9.2957 31.8865 6.49167
9.2964 31.8721 6.47321
9.29738 31.8555 6.45465
9.29824 31.8443 6.44182
9.29986 31.8344 6.42992
9.29905 31.8175 6.41426
9.30043 31.8053 6.39801
9.30092 31.7947 6.38643
9.30292 31.7792 6.36857
9.30448 31.7642 6.35589
9.30749 31.7459 6.33555
9.3097 31.7322 6.3228
9.30944 31.7135 6.30906
9.30861 31.6993 6.29536
9.30855 31.6798 6.28169
9.30879 31.6653 6.2719
9.30947 31.646 6.26289
9.31075 31.6263 6.25166
9.31237 31.609 6.24088
9.31475 31.5884 6.22783
9.31623 31.5758 6.2196
9.31839 31.5583 6.20805
9.32145 31.5432 6.19306
9.32544 31.5275 6.18047
9.33096 31.5034 6.16198
9.33443 31.4859 6.15166
9.33709 31.4718 6.13975
9.33879 31.4581 6.12972
9.34265 31.439 6.11343
9.34747 31.4245 6.10152
9.35112 31.4125 6.09187
9.35445 31.4031 6.08245
9.35964 31.3893 6.06756
9.36417 31.3749 6.06088
9.36858 31.3635 6.04957
9.37381 31.3504 6.03398
9.37761 31.3348 6.02365
9.38496 31.3093 6.00413
9.38782 31.2987 5.99492
9.39232 31.2839 5.98009
9.39692 31.2689 5.96512
9.40076 31.2557 5.95236
9.40645 31.2391 5.93316
9.41049 31.2238 5.91842
9.41703 31.2118 5.90618
9.42315 31.2016 5.89389
9.43041 31.1896 5.87919
9.43661 31.1803 5.86635
9.44193 31.1703 5.85385
9.44839 31.1541 5.83708
9.45365 31.1323 5.81834
9.45698 31.1051 5.79927
9.45837 31.0927 5.79049
9.46468 31.0606 5.77164
9.47171 31.0349 5.7535
9.47652 31.0195 5.74387
9.48051 31.005 5.73736
9.48823 30.9633 5.73377
9.49575 30.9334 5.72764
9.50439 30.9016 5.72018
9.51437 30.8681 5.70961
8.92517 33.7223 8.11228
9.00937 33.6661 8.16122
9.0594 33.6314 8.20032
9.10386 33.6045 8.22367
9.16801 33.5768 8.23961
9.25484 33.5182 8.25882
9.25009 33.4918 8.26569
9.24581 33.4333 8.27962
9.2516 33.4116 8.28542
9.25254 33.3284 8.31866
9.25455 33.2815 8.35453
9.25513 33.2352 8.38179
9.25964 33.143 8.43005
9.26068 33.1266 8.43705
9.262 33.1053 8.44534
9.26715 33.0461 8.4701
9.27023 33.023 8.47797
9.27531 32.9703 8.50042
9.27831 32.9411 8.51164
9.27837 32.9057 8.52406
8.33403 33.2177 8.92918
9.37333 33.8758 8.22803
9.35117 33.8302 8.218
9.3182 33.7229 8.20497
9.27423 33.5616 8.23084
9.40125 33.912 8.23776
8.96302 33.6905 8.14181
8.99425 33.6738 8.15587
8.46154 33.3205 8.90149
8.54484 33.2239 8.89606
9.37435 33.5811 8.29098
9.34772 33.5511 8.28604
9.32961 33.5078 8.28782
9.30281 33.4789 8.28486
9.3333 33.7784 8.20969
9.30433 33.6665 8.20568
9.29019 33.6118 8.21368
8.61575 33.1661 8.91123
10.4721 33.4121 8.44576
10.4323 33.4168 8.45295
10.2839 33.4116 8.47511
10.2339 33.4072 8.4806
10.1879 33.4033 8.48449
10.147 33.407 8.48535
10.1129 33.4008 8.48501
10.0906 33.4028 8.4882
10.0329 33.3705 8.48579
9.97049 33.3485 8.48069
9.89026 33.2398 8.47623
9.83406 33.1207 8.48054
9.81535 33.0849 8.48021
9.80216 33.062 8.48124
9.77555 33.0169 8.48299
9.74266 32.9748 8.48506
9.72898 32.9593 8.48504
9.69837 32.9216 8.48367
9.66735 32.8872 8.48424
9.64635 32.8578 8.48403
9.62879 32.8334 8.48294
9.59994 32.7796 8.48264
9.56787 32.7321 8.47982
9.5462 32.695 8.47551
9.52998 32.6658 8.46886
9.48891 32.6382 8.44908
9.43304 32.6358 8.45277
9.42065 32.6238 8.44316
8.69501 33.3773 8.9195
8.70237 33.2525 8.85624
8.72182 33.1822 8.84583
8.70024 33.3235 8.88601
13.9664 29.5539 7.18818
13.9661 29.5252 7.17021
13.9563 29.5071 7.14848
13.8725 29.498 7.06656
13.8285 29.5044 7.03499
13.7786 29.5128 7.00126
13.7242 29.5219 6.9654
13.6672 29.53 6.92706
13.6519 29.5387 6.89786
13.6416 29.543 6.87668
13.6401 29.5408 6.85551
13.6379 29.5474 6.82808
13.6344 29.5524 6.79958
13.6275 29.5601 6.77793
13.6205 29.5718 6.71689
13.6023 29.6077 6.66386
13.5882 29.6409 6.62129
13.5821 29.6663 6.59878
13.5758 29.6942 6.5617
13.5675 29.7157 6.54346
13.5415 29.7529 6.51975
13.5049 29.804 6.48504
13.4945 29.8211 6.47712
13.4756 29.8418 6.46426
13.4332 29.8659 6.43554
13.3971 29.8925 6.41061
13.3794 29.901 6.40089
13.3499 29.9177 6.38378
13.3149 29.942 6.36479
13.3007 29.9496 6.35778
13.2611 29.9719 6.34183
13.2367 29.9842 6.33107
13.2004 30.0002 6.32148
13.1713 30.0153 6.31217
13.1452 30.0307 6.30323
13.1237 30.0466 6.2943
13.1076 30.0683 6.27661
13.095 30.0873 6.26223
13.0824 30.1035 6.25155
13.0647 30.1245 6.2397
13.0513 30.1411 6.23021
13.0324 30.1627 6.21484
13.0189 30.1783 6.20312
12.9906 30.2127 6.18595
12.9828 30.2347 6.18124
12.968 30.2713 6.17906
12.936 30.2601 6.16436
12.9216 30.2591 6.15831
12.8744 30.2649 6.14199
12.8417 30.2708 6.12907
12.8202 30.276 6.11957
12.8016 30.2809 6.11099
12.7824 30.2823 6.10654
12.7568 30.2858 6.09978
12.7395 30.2889 6.09266
12.7191 30.294 6.0868
12.6931 30.3007 6.08134
12.6615 30.3118 6.07316
12.6378 30.3179 6.07007
12.6135 30.3241 6.06734
12.5879 30.3332 6.06518
12.5635 30.345 6.06106
12.5328 30.3601 6.05832
12.5197 30.3648 6.05168
12.4946 30.3768 6.04629
12.4661 30.3909 6.04054
12.4362 30.3826 6.01366
12.4325 30.4079 6.03476
12.4158 30.4183 6.03682
12.3952 30.4238 6.03667
12.3702 30.4328 6.03384
12.352 30.442 6.02931
12.332 30.453 6.02593
12.3082 30.4657 6.02002
12.2872 30.4761 6.01433
12.2709 30.4832 6.01056
12.2584 30.4904 6.00791
12.2369 30.4989 6.00538
12.2106 30.5057 6.00438
12.1924 30.5108 6.00297
12.1692 30.5205 6.00088
12.145 30.529 5.99628
12.1159 30.542 5.99627
12.1029 30.5496 5.99706
12.0741 30.5616 5.99326
12.0524 30.5711 5.98581
12.0372 30.5753 5.98054
12.0186 30.5779 5.97553
11.9949 30.5773 5.97218
11.9667 30.5763 5.96572
11.9515 30.5759 5.96251
11.9304 30.5757 5.95833
11.9142 30.576 5.95584
11.8804 30.5786 5.95044
11.8553 30.5824 5.94333
11.8384 30.5859 5.93765
11.8166 30.5904 5.92873
11.8005 30.5942 5.92233
11.7847 30.5978 5.91469
11.7535 30.6018 5.90453
11.7353 30.6016 5.89866
11.7196 30.6017 5.8922
11.6935 30.6021 5.88319
11.6734 30.6028 5.87986
11.6534 30.6045 5.8741
11.6335 30.6079 5.86901
11.6067 30.6122 5.86022
11.5871 30.6165 5.85436
11.5699 30.6181 5.84891
11.5506 30.6204 5.84257
11.5208 30.6244 5.83085
11.504 30.6278 5.82355
11.4866 30.6333 5.81671
11.4543 30.6484 5.80652
11.4271 30.6603 5.80044
11.4044 30.6708 5.79776
11.3809 30.694 5.79874
11.3625 30.7109 5.80267
11.3496 30.7268 5.81109
11.311 30.7443 5.8097
11.2798 30.7515 5.80062
11.2501 30.7607 5.79593
11.226 30.7711 5.79648
11.1973 30.7817 5.79406
11.1691 30.7932 5.7949
11.1442 30.8009 5.79409
11.1247 30.8067 5.79282
11.0955 30.8151 5.78656
11.076 30.8197 5.77877
11.0557 30.8224 5.77193
11.0199 30.8271 5.7579
10.9984 30.8297 5.7471
10.9814 30.8318 5.73954
10.9644 30.8333 5.73205
10.9492 30.8344 5.72396
10.9215 30.8327 5.71206
10.9078 30.831 5.70503
10.8834 30.8276 5.69291
10.8685 30.8254 5.68655
10.8557 30.8235 5.68032
10.8408 30.8208 5.67452
10.8273 30.8184 5.66938
10.8091 30.8144 5.66046
10.7843 30.8102 5.6517
10.7589 30.8081 5.63873
10.7233 30.8152 5.62424
10.6992 30.8207 5.6145
10.6745 30.8246 5.60041
10.6563 30.8255 5.58897
10.6423 30.8253 5.57776
10.628 30.8245 5.56958
10.6072 30.8205 5.55703
10.5945 30.8176 5.54415
10.5821 30.8144 5.53384
10.5564 30.81 5.5153
10.5369 30.8065 5.49547
10.523 30.804 5.48526
10.5024 30.8005 5.46642
10.4813 30.7957 5.44971
10.4602 30.7919 5.43183
10.4305 30.7831 5.41659
10.4156 30.7779 5.40873
10.3934 30.7686 5.38839
10.3606 30.7587 5.36711
10.3475 30.7569 5.36284
10.3245 30.7509 5.35316
10.3003 30.7436 5.34337
10.2809 30.7369 5.33602
10.2529 30.7274 5.32663
10.2381 30.723 5.322
10.2222 30.7181 5.3167
10.2048 30.7138 5.30969
10.1891 30.7093 5.30289
10.172 30.7064 5.29436
10.1451 30.7048 5.27991
10.1219 30.7053 5.26091
10.107 30.7059 5.25222
10.0928 30.7065 5.24279
10.072 30.7066 5.23143
10.0552 30.7069 5.22368
10.0385 30.7073 5.21534
10.0235 30.7077 5.20636
10.006 30.7079 5.19812
9.99059 30.7078 5.19224
9.96964 30.7074 5.18313
9.95466 30.7066 5.17843
9.94053 30.7056 5.17345
9.92458 30.7047 5.1686
9.90899 30.7047 5.16332
9.89349 30.7055 5.15936
9.86668 30.7078 5.15263
9.82085 30.709 5.14291
9.79442 30.7111 5.13943
9.75758 30.7098 5.1367
9.72289 30.7087 5.13042
9.6903 30.7062 5.12236
9.17047 33.3672 8.95092
9.17775 33.275 8.87144
9.1886 33.2325 8.83503
9.2013 33.1926 8.80023
9.21687 33.1449 8.75494
9.22137 33.1286 8.7366
9.23256 33.0766 8.68203
9.23752 33.0628 8.67671
9.23681 33.0284 8.66067
9.23643 32.9852 8.63513
9.23603 32.9446 8.60871
8.78321 33.3404 8.82811
8.73096 33.1743 8.83642
10.3857 33.4175 8.46073
10.3354 33.4154 8.46826
8.78129 33.2827 8.85224
9.9267 33.5401 8.43092
9.9384 33.4935 8.44131
9.99413 33.3846 8.4766
9.17098 33.3199 8.90986
9.93863 33.603 8.42378
9.93592 33.5693 8.42912
9.93224 33.5558 8.43059
13.937 29.4976 7.12369
13.909 29.4952 7.09619
10.1217 33.4716 8.51675
13.4663 29.6317 7.10638
13.4935 29.6133 7.08534
13.6168 29.5554 6.98559
13.3448 31.1598 7.01486
13.3392 31.1471 7.00793
13.2964 31.0955 6.96778
13.283 31.0772 6.95578
13.2612 31.0422 6.93079
13.2428 31.0061 6.90446
13.2299 30.9703 6.8775
13.2232 30.9352 6.85049
13.2273 30.9074 6.82439
13.2328 30.8667 6.79848
13.2432 30.8175 6.76716
13.2287 30.8561 6.76104
13.243 30.8052 6.70556
13.295 30.783 6.56183
13.2838 30.7979 6.57619
13.2634 30.8068 6.63482
13.2987 30.7797 6.57813
13.3121 30.77 6.55522
13.3811 30.6812 6.43493
13.387 30.6474 6.42084
13.3968 30.6139 6.38929
13.3974 30.5799 6.37503
13.3861 30.5361 6.36553
13.3757 30.5249 6.357
13.3602 30.5107 6.34437
13.3482 30.4981 6.32887
13.3153 30.4793 6.31044
13.2947 30.4713 6.30024
13.2812 30.4654 6.29444
13.2464 30.449 6.27929
13.2332 30.4451 6.27453
13.2033 30.4375 6.26663
13.1822 30.4361 6.26504
13.1483 30.4263 6.25859
13.1384 30.4136 6.2474
13.1247 30.3983 6.23559
13.1064 30.3818 6.22213
13.0901 30.3707 6.21708
13.0583 30.3489 6.20945
13.0237 30.326 6.2006
13.0053 30.3032 6.19219
12.984 30.2851 6.18538
12.9592 30.2639 6.17325
14.1808 30.5572 6.43853
14.1651 30.5568 6.44261
14.1422 30.5535 6.4475
14.0628 30.5298 6.4521
14.019 30.5245 6.45516
13.9124 30.5468 6.46996
13.8956 30.5524 6.47186
13.8751 30.5541 6.46801
13.8517 30.5547 6.46771
13.7945 30.5498 6.45879
13.7483 30.5377 6.44516
13.7255 30.5411 6.44323
13.7045 30.546 6.43771
13.6466 30.5454 6.42642
13.597 30.5483 6.41624
13.5437 30.5443 6.40289
13.5151 30.5408 6.39541
13.4923 30.5401 6.38961
13.4424 30.5405 6.37818
13.4433 29.6524 7.1259
9.29436 33.0868 8.68468
9.2527 33.0863 8.68492
14.0414 30.7477 6.62584
14.0188 30.7377 6.61251
13.9505 30.6862 6.56568
13.9094 30.6227 6.51836
13.8876 30.5973 6.50341
13.8608 30.5731 6.48715
13.5867 29.5683 7.01278
13.6444 29.5452 6.95731
13.8439 30.7663 6.68444
13.8493 30.7526 6.6538
13.883 30.7091 6.59107
13.904 30.6447 6.53388
13.9693 30.4815 6.51588
13.9654 30.4921 6.50115
8.64079 32.6807 8.7605
8.65242 32.6751 8.75991
8.70684 32.6545 8.74905
8.74488 32.6648 8.74971
8.78804 32.6667 8.74894
8.94041 32.647 8.73754
9.02299 32.6294 8.72289
9.05423 32.6218 8.71608
9.18811 32.628 8.67139
9.21365 32.6382 8.6274
9.27761 32.6486 8.5543
9.29975 32.6577 8.5173
8.62046 32.56 8.74875
10.2332 32.6663 8.69244
10.1845 32.6607 8.68315
10.0957 32.6501 8.67476
9.95712 32.6661 8.63667
9.81543 32.6585 8.58954
9.75777 32.6552 8.57347
9.71963 32.6519 8.559
9.66305 32.6473 8.53873
9.59931 32.644 8.50131
9.53682 32.6511 8.46521
9.52166 32.6492 8.4592
9.50646 32.6436 8.45412
13.6324 29.6074 6.91971
13.6324 29.5941 6.92235
13.6382 29.5448 6.87794
13.5236 29.5969 7.0627
13.5551 29.582 7.0385
14.1022 30.5405 6.44985
10.1723 32.5536 8.70234
10.1623 32.5607 8.70029
8.67321 32.5799 8.75181
13.2688 30.5958 6.84291
13.2522 30.6468 6.82171
13.2423 30.6932 6.79458
13.2382 30.734 6.77043
13.2366 30.767 6.75599
13.2317 30.7888 6.75622
13.9862 30.4318 6.54545
13.9693 30.5288 6.46061
10.1438 32.6421 8.68489
8.67401 32.6336 8.74714
9.60363 30.4106 8.8525
9.61125 30.4318 8.83009
9.61755 30.467 8.81167
9.62039 30.5069 8.79075
9.61764 30.5425 8.76086
9.61769 30.6135 8.69616
9.59857 30.6461 8.64932
9.61197 30.7261 8.58912
9.64668 30.7642 8.56207
9.66644 30.7806 8.54703
9.69402 30.8044 8.54119
9.80917 30.882 8.50685
9.8027 30.9011 8.4829
9.7998 30.9211 8.46012
9.79913 30.9425 8.43778
9.79935 30.9662 8.41506
9.79975 30.9939 8.39144
9.8001 31.0266 8.36704
9.80047 31.0646 8.34239
9.80088 31.1065 8.31798
9.80139 31.1499 8.29461
9.80202 31.1932 8.27289
9.80261 31.2339 8.25348
9.80452 31.2365 8.23327
9.80806 31.2511 8.18899
9.80664 31.2738 8.15965
9.80574 31.291 8.13654
9.80362 31.3065 8.11584
9.7989 31.3283 8.09138
9.79625 31.3696 8.04382
9.79068 31.4073 8.00682
9.78893 31.42 7.9896
9.78998 31.4593 7.9474
9.79185 31.4927 7.90857
9.79411 31.5218 7.87258
9.7964 31.5475 7.83927
9.79889 31.5651 7.81076
9.80046 31.6011 7.76861
9.79937 31.6148 7.75463
9.79778 31.6408 7.72663
9.79581 31.654 7.71594
9.79261 31.6793 7.69005
9.7882 31.7101 7.66555
9.78276 31.7251 7.63305
9.78231 31.7229 7.61188
9.77874 31.7236 7.59048
9.77157 31.73 7.56513
9.76539 31.735 7.54806
9.75755 31.7413 7.53226
9.73119 31.7689 7.48399
9.70899 31.7961 7.44961
9.69602 31.8191 7.42941
9.68239 31.8572 7.39596
13.7172 29.4921 6.83928
13.7007 29.503 6.83055
13.6876 29.5075 6.8249
13.7245 30.4581 6.46984
13.7205 30.4996 6.46025
13.7214 30.5118 6.45226
13.9886 30.7172 6.59217
9.09926 32.5162 8.81
9.106 32.5367 8.78673
9.13668 32.5714 8.76728
9.19513 32.6264 8.72509
9.18719 32.6261 8.68934
9.41052 32.6023 8.89287
9.28272 32.6062 8.8169
9.26119 32.6118 8.79155
9.23909 32.6176 8.76203
9.21803 32.623 8.73292
9.21659 32.6348 8.69773
9.83512 30.5505 8.79563
9.78571 30.5362 8.78715
9.72904 30.6385 8.74443
9.72399 30.6846 8.6891
9.88524 30.8038 8.63096
9.86949 30.816 8.60982
9.85205 30.8302 8.58527
9.83468 30.8463 8.55874
9.81991 30.8637 8.53222
9.32669 32.5889 8.85694
9.31606 32.5954 8.8463
9.30181 32.6015 8.83543
13.635 31.4648 6.75629
13.6306 31.4735 6.64554
13.6417 31.4652 6.55276
13.5998 31.4409 6.49567
13.5598 31.422 6.46249
13.5205 31.4031 6.44702
13.4809 31.3811 6.44456
13.4538 31.3734 6.46343
13.4073 31.3243 6.46196
13.3556 31.2741 6.46125
13.3053 31.1928 6.47237
13.2474 31.1274 6.47576
13.2008 31.0604 6.50097
13.1738 31.0328 6.51549
13.1551 31.0162 6.5247
13.0791 30.9685 6.55279
12.9681 30.8949 6.57307
12.9956 30.8766 6.5741
13.0136 30.9052 6.55359
13.0373 30.7814 6.5235
13.0675 30.6106 6.44513
13.0903 30.5757 6.41986
13.0982 30.5604 6.40011
13.1062 30.5345 6.37006
13.122 30.5071 6.34551
13.1321 30.4769 6.31448
13.1401 30.4531 6.29081
13.1457 30.4354 6.27168
9.35505 32.5461 8.89848
10.0048 32.6586 8.65244
8.83586 32.6623 8.74659
8.87805 32.6607 8.74292
9.90799 30.7172 8.78259
9.88573 30.7464 8.76188
9.88467 30.7664 8.73346
9.89686 30.7942 8.64687
13.2602 30.8378 6.84093
13.2429 30.836 6.77468
13.2402 30.8294 6.76119
9.31317 32.5593 8.8679
13.5588 31.5964 6.69144
13.6153 31.5298 6.6935
13.6287 31.4728 6.61886
9.66687 30.5282 8.7877
9.69992 30.5333 8.76912
9.91182 32.6696 8.62017
9.67941 31.6017 8.91456
9.67081 31.5822 8.90426
9.62288 31.4773 8.84794
9.60416 31.4242 8.78399
9.60661 31.4216 8.73097
9.63893 31.4086 8.6792
9.6775 31.3965 8.644
9.6987 31.3963 8.64074
9.74399 31.3564 8.53671
9.75037 31.3347 8.48671
9.75961 31.3163 8.4471
9.77804 31.2977 8.41016
9.78336 31.2874 8.39027
9.78672 31.2784 8.37489
9.792 31.2617 8.35081
9.79492 31.251 8.33174
9.79715 31.2424 8.31051
9.7994 31.2364 8.28507
9.17117 32.6051 8.74653
9.19962 32.6275 8.70837
9.67054 31.3993 8.87056
9.63537 30.5914 8.73242
9.25273 32.6779 8.65704
9.26998 32.6408 8.57533
9.64853 31.5353 8.88504
9.1185 32.6198 8.71624
9.231 32.7045 8.61239
13.583 31.4482 6.57338
9.37752 32.0086 8.72574
9.33926 32.0388 8.6586
9.29955 32.0508 8.65535
9.27516 32.0665 8.64704
9.2374 32.0804 8.61785
9.21194 32.0935 8.58608
9.20188 32.0981 8.56576
9.18197 32.1018 8.52458
9.17471 32.1054 8.50032
9.1629 32.1168 8.43254
9.15393 32.1223 8.4037
9.14096 32.129 8.37451
9.13593 32.1347 8.33909
9.13534 32.1396 8.30496
9.11776 32.1472 8.27116
9.10801 32.1553 8.26601
9.15831 32.1426 8.19063
9.22548 32.1355 8.15335
9.29347 32.1344 8.10564
9.30971 32.1343 8.09735
9.33634 32.1353 8.07564
9.4205 32.1333 8.0197
9.49787 32.1451 7.98016
9.31629 32.7115 8.59849
9.3684 32.7163 8.55584
9.3889 32.6877 8.5133
9.38353 32.6546 8.4789
9.41402 32.6452 8.46148
9.42332 32.6338 8.45278
9.39342 32.1523 8.7005
9.38816 32.1412 8.69847
9.3825 32.123 8.69475
9.20444 32.6073 8.53451
9.90432 31.4277 8.6455
9.88407 31.4254 8.64395
9.84973 31.4218 8.631
9.78794 31.4056 8.62381
9.74277 31.3822 8.59902
9.7169 31.4337 8.73316
8.33561 32.6881 8.32052
8.3391 32.6679 8.31726
8.40543 32.448 8.3013
8.42497 32.3684 8.2919
8.45181 32.3183 8.27418
8.46358 32.2883 8.27814
8.47065 32.2607 8.28484
8.52991 32.219 8.28118
8.6458 32.2182 8.29471
8.74189 32.2081 8.27549
8.82812 32.2049 8.26958
8.9108 32.193 8.25368
9.0071 32.1735 8.25181
9.08122 32.1648 8.2587
9.60445 30.7446 8.59398
9.67948 30.7893 8.54104
13.1187 31.2931 6.79555
13.119 31.2499 6.77269
13.1126 31.2098 6.75152
13.0678 31.0984 6.69172
13.0493 31.0613 6.67031
13.0312 31.0229 6.64621
13.0155 30.9643 6.61665
13.001 30.9394 6.58513
13.0193 30.8753 6.55373
13.2083 30.761 6.50445
9.1763 31.9932 8.67736
9.18547 32.0353 8.65742
9.2087 32.0637 8.63378
8.29839 32.2129 8.28738
8.34091 32.2162 8.29092
8.39885 32.2226 8.29044
8.45191 32.2409 8.30521
8.47025 32.2396 8.28993
8.40693 32.3892 8.33304
8.41532 32.3802 8.32229
8.39081 32.5229 8.3005
8.39891 32.4846 8.29899
12.9455 30.9961 6.60875
12.9622 30.9834 6.59583
13.004 30.9267 6.54333
12.9469 30.9201 6.57531
12.9417 30.9419 6.60544
8.36843 32.6036 8.31012
8.41072 32.4132 8.30865
8.43803 32.3464 8.27731
8.38077 32.5627 8.30461
13.5514 29.8985 6.51512
13.5393 29.8935 6.50385
13.5359 29.8784 6.4965
13.4606 29.8496 6.45361
13.12 30.9029 6.61037
13.135 30.8951 6.61414
13.1405 30.9175 6.62407
13.1477 30.9308 6.64028
13.0194 30.9088 6.57021
9.17754 32.0252 8.61078
8.3831 32.1127 8.3365
8.42483 32.1518 8.32537
8.4355 32.2036 8.30904
8.49416 32.2182 8.27329
13.1863 30.8684 6.58078
13.1586 30.8807 6.6
13.1413 30.8691 6.61835
13.1445 29.714 6.55887
13.1371 29.7358 6.54417
13.1301 29.7541 6.53432
13.1117 29.8454 6.48891
13.1086 29.9059 6.45264
13.109 29.9895 6.3974
13.1104 30.0042 6.36293
13.115 30.0229 6.33147
13.1144 30.0338 6.31393
13.1727 30.8802 6.67641
12.9744 30.6106 6.48974
13.0191 30.6209 6.48539
13.0541 30.6075 6.46625
13.0727 30.599 6.45193
13.0332 29.9809 6.48475
13.0643 29.9835 6.45003
13.0876 29.9891 6.41341
13.1091 29.9953 6.38087
13.1235 29.7745 6.52482
13.1171 29.8032 6.51127
12.8454 30.5843 6.45745
8.57855 32.222 8.29324
8.82841 32.2737 8.47179
8.85394 32.263 8.46155
8.95811 32.2312 8.38303
8.9957 32.2074 8.33108
8.66983 32.2683 8.32828
8.79196 32.2103 8.27655
12.9883 29.9899 6.49507
9.32294 32.249 8.31589
8.90734 32.2488 8.42331
9.3112 32.203 8.32011
9.26697 32.1794 8.28218
9.28409 32.1795 8.29849
9.30705 32.1764 8.29614
9.24707 32.1328 8.12801
9.22662 32.1939 8.26673
9.15965 32.1656 8.2804
9.14078 32.143 8.27154
13.0362 28.1369 7.42459
13.0153 28.1305 7.36724
12.994 28.1312 7.28221
12.9662 28.1256 7.24948
12.952 28.1315 7.24425
12.9232 28.1375 7.23708
12.8735 28.1434 7.22829
12.8112 28.1739 7.20729
12.7515 28.1988 7.19382
12.6845 28.2313 7.17803
12.6551 28.2425 7.17117
12.6252 28.2578 7.16547
12.5849 28.2761 7.159
12.5458 28.2941 7.15402
12.5171 28.3077 7.1495
12.501 28.3158 7.14671
12.4774 28.3243 7.14139
12.4423 28.3369 7.13342
12.4151 28.3458 7.12929
12.3691 28.3571 7.12057
12.3464 28.3636 7.11519
12.312 28.3737 7.1087
12.2981 28.3792 7.1047
12.2721 28.3904 7.0969
12.2451 28.4021 7.08925
12.2181 28.4146 7.0819
12.195 28.424 7.07561
12.1354 28.4482 7.05602
12.0843 28.472 7.04253
12.0195 28.5005 7.019
11.9768 28.525 7.00807
11.9329 28.5444 6.98976
11.8981 28.5666 6.98022
11.8724 28.5828 6.96703
11.8433 28.6029 6.95436
11.8281 28.6133 6.9495
11.7958 28.6318 6.94651
11.7576 28.655 6.94125
11.7176 28.6889 6.93688
11.6837 28.7179 6.93453
11.6637 28.737 6.93306
11.6442 28.7547 6.93301
11.6174 28.7851 6.92916
11.597 28.8073 6.92629
11.5827 28.8244 6.92189
11.5521 28.8562 6.91547
11.5069 28.902 6.89642
11.4877 28.9295 6.87853
11.4789 28.9482 6.86835
11.4621 28.9723 6.85466
11.4485 28.9935 6.84435
11.4388 29.0127 6.83732
11.4149 29.0437 6.82286
11.3937 29.0648 6.81318
11.3735 29.0876 6.80653
11.3508 29.0983 6.8008
11.3271 29.1105 6.79606
11.3145 29.1183 6.79334
11.2852 29.1315 6.78845
11.268 29.1365 6.78606
11.25 29.1439 6.78097
11.22 29.1592 6.76837
11.1875 29.1774 6.75387
11.1556 29.1916 6.73991
11.112 29.2176 6.71964
11.0908 29.2256 6.71271
11.064 29.2366 6.70129
11.0316 29.2533 6.68423
11.0138 29.2614 6.67445
10.9961 29.2672 6.66608
10.9627 29.2772 6.6509
10.9224 29.2942 6.6367
10.8888 29.3121 6.62217
10.8435 29.3353 6.6036
10.8204 29.3454 6.59562
10.7704 29.3628 6.58091
10.721 29.3854 6.5718
10.6928 29.3972 6.57156
10.6845 29.421 6.55645
10.6741 29.4347 6.55218
10.6573 29.4615 6.54581
10.628 29.4999 6.52979
10.6079 29.5298 6.52643
10.5969 29.5437 6.52043
10.562 29.5855 6.50465
10.5371 29.6132 6.49614
10.5152 29.6455 6.4887
10.504 29.6623 6.48383
10.4976 29.676 6.47785
10.4734 29.7099 6.46512
10.4637 29.7223 6.46102
10.4424 29.7447 6.45156
10.4252 29.7661 6.44328
10.4135 29.7836 6.43695
10.4033 29.7947 6.43098
10.3972 29.8152 6.41934
10.3898 29.8381 6.40538
10.3836 29.8521 6.39631
10.3777 29.8633 6.3877
10.3708 29.8838 6.37668
10.3562 29.9132 6.35783
10.3473 29.9292 6.34584
10.3375 29.9526 6.32722
10.3319 29.969 6.31299
10.3282 29.9868 6.29983
10.3269 30.0003 6.2893
10.3272 30.0144 6.28032
10.3294 30.0272 6.26807
10.3206 30.0531 6.25038
10.305 30.0754 6.22895
10.2944 30.0876 6.21368
10.2823 30.1079 6.19175
10.2753 30.1261 6.17386
10.271 30.1374 6.15801
10.2654 30.154 6.14091
10.2634 30.164 6.12856
10.2593 30.1795 6.10875
10.2555 30.1976 6.08928
10.2515 30.2092 6.07812
10.2485 30.22 6.06193
10.2446 30.2351 6.04337
10.2414 30.2446 6.03137
10.2373 30.2562 6.01723
10.2329 30.2677 6.0037
10.2283 30.2792 5.99065
10.2237 30.2907 5.97776
10.2186 30.302 5.96603
10.2145 30.313 5.95174
10.2115 30.3221 5.94104
10.2075 30.3371 5.92203
10.203 30.3505 5.90163
10.1983 30.3621 5.88938
10.1944 30.3706 5.8756
10.1923 30.3794 5.86011
10.1883 30.392 5.84413
10.1867 30.3993 5.82979
10.1836 30.4198 5.80166
10.1817 30.434 5.77875
10.1816 30.4402 5.7645
10.1808 30.4529 5.74195
10.1799 30.4611 5.72928
10.1793 30.4673 5.71451
10.1786 30.4754 5.69849
10.1783 30.4818 5.68458
10.1765 30.4936 5.66308
10.1757 30.5085 5.63831
10.1744 30.5251 5.59139
10.1767 30.5463 5.55739
10.1781 30.5632 5.51578
10.1806 30.5759 5.4865
10.1817 30.5973 5.44341
10.1819 30.6066 5.4297
10.1825 30.6211 5.40863
10.1849 30.6398 5.38353
10.1864 30.6599 5.35952
10.1878 30.6829 5.3331
9.62351 32.3527 8.02349
9.63008 32.3281 8.0072
9.63581 32.3103 7.99958
9.64407 32.2868 7.98595
9.63997 32.2519 7.97617
9.62945 32.2161 7.96684
9.61218 32.1825 7.95687
13.2343 27.9622 7.30597
13.1278 28.0138 7.28593
13.0881 28.0388 7.28469
13.0208 28.0858 7.28326
12.9868 28.1102 7.26358
9.58788 31.6435 8.1794
9.60366 31.6251 8.16926
13.1778 27.9863 7.29409
13.0179 27.8665 7.38714
13.0627 28.0556 7.29358
13.043 27.9581 7.37206
13.049 27.9792 7.37048
13.0529 28.0036 7.35275
9.65907 31.5405 8.09165
9.62911 31.5888 8.1372
13.0318 27.9238 7.37463
12.9839 28.2675 7.22307
12.9373 28.1753 7.2237
9.70394 31.4837 8.04004
9.69858 32.1457 7.91106
9.69025 32.1604 7.92083
9.58812 32.1544 7.94463
9.55708 32.1349 7.9288
9.87035 32.1493 7.93054
9.80243 32.1465 7.91863
9.76846 32.1467 7.91309
9.70901 32.0861 7.88234
9.71812 32.0378 7.86032
9.72655 31.9976 7.842
9.73464 31.9625 7.82514
9.74303 31.9291 7.80682
9.74545 31.9047 7.79111
9.75958 31.8601 7.76374
9.76965 31.8082 7.72236
9.78466 31.7723 7.68809
9.78048 31.7291 7.65505
12.8042 28.89 6.59453
12.7019 28.9215 6.56831
12.6135 28.9393 6.52721
12.5916 28.9533 6.51037
12.5666 28.9591 6.49776
12.4852 28.9512 6.47228
12.4167 28.9296 6.47555
12.3501 28.9161 6.49558
12.2714 28.8975 6.54724
12.2051 28.872 6.62396
12.1925 28.8684 6.64947
12.1473 28.8726 6.717
12.1315 28.8761 6.71783
12.079 28.888 6.72374
12.0633 28.891 6.72657
12.0164 28.904 6.72989
11.9645 28.9194 6.73545
11.8954 28.9471 6.73564
11.8252 28.9771 6.74546
11.7576 29.0025 6.74946
11.7255 29.0144 6.7558
11.6676 29.0475 6.76828
11.6214 29.0607 6.77983
11.5916 29.0621 6.78653
11.5627 29.0662 6.79308
11.5036 29.078 6.79937
11.4641 29.0833 6.80111
11.4324 29.0852 6.80407
11.4052 29.0865 6.80616
12.7242 28.8854 6.7411
12.6729 28.9232 6.6492
12.6329 28.9254 6.55352
12.8561 28.901 6.59713
12.6961 28.913 6.69889
12.6813 28.9223 6.66254
12.5667 29.171 6.52226
12.5567 29.04 6.49349
12.5488 28.9576 6.48684
12.5261 28.9536 6.47667
12.5605 29.12 6.51341
12.5593 29.1012 6.50796
12.5592 29.0825 6.50151
12.4973 28.6692 6.78858
12.4133 28.7127 6.77922
12.3748 28.7368 6.77454
12.3339 28.7631 6.76785
12.2807 28.7984 6.75706
12.232 28.8281 6.741
12.1697 28.87 6.7195
9.14415 31.9123 7.34293
9.17734 31.9076 7.32334
9.19435 31.9072 7.31462
9.22489 31.9014 7.28684
9.24342 31.8982 7.27181
9.25653 31.8978 7.26054
9.27003 31.8981 7.24019
9.28963 31.9013 7.21945
9.30213 31.9041 7.20451
9.31071 31.9063 7.19386
9.32827 31.9079 7.16694
9.33756 31.9081 7.15151
9.35435 31.9093 7.12333
9.36876 31.9108 7.09423
9.39278 31.9151 7.05652
9.40875 31.9228 7.03251
12.453 28.6904 6.7834
11.9423 29.6287 6.81739
11.9396 29.6141 6.81955
11.9385 29.5738 6.83437
11.9279 29.4835 6.84936
11.9202 29.431 6.84886
11.8993 29.3487 6.84204
11.8732 29.2893 6.83638
11.8361 29.2666 6.8301
11.7925 29.2009 6.81818
11.7455 29.124 6.80513
11.7034 29.0667 6.791
12.4724 31.0888 6.36832
12.5086 31.051 6.35771
12.5205 31.0137 6.34585
12.5124 30.9777 6.33282
12.4887 30.9432 6.31865
12.4539 30.9109 6.30333
12.4064 30.8771 6.28687
12.3683 30.8582 6.27319
12.3231 30.8301 6.25114
12.2908 30.8055 6.23297
12.2644 30.7787 6.21012
12.2466 30.7576 6.19206
12.2328 30.7377 6.17248
12.2212 30.7219 6.15849
12.2056 30.7038 6.14097
12.1667 30.6734 6.1144
12.1288 30.6354 6.08615
12.0992 30.591 6.0408
12.1505 29.3259 6.78991
12.0894 29.3017 6.78827
11.9501 29.2588 6.79044
11.862 29.2773 6.83316
11.937 29.527 6.84119
12.0243 29.2731 6.78196
11.4837 31.2601 6.73574
11.4774 31.1774 6.69656
11.4724 31.1518 6.68022
11.4648 31.0826 6.65949
11.4636 31.041 6.62885
11.4627 31.0355 6.60941
11.4625 31.0293 6.59138
11.4624 31.0225 6.57423
11.4623 31.0127 6.55406
11.46 31.007 6.53974
11.457 31.0016 6.52201
11.4521 30.9958 6.50191
11.4478 30.991 6.48861
11.4377 30.9783 6.45357
11.43 30.964 6.4224
11.4213 30.9475 6.38751
11.4084 30.9295 6.34198
11.4034 30.9194 6.31575
11.4008 30.9113 6.29646
11.395 30.8977 6.26126
11.3916 30.8875 6.23791
11.3891 30.8706 6.19559
11.3878 30.8512 6.1472
11.3869 30.8458 6.12612
11.384 30.8216 6.05971
11.3843 30.7994 6.00842
11.3803 30.7835 5.97836
11.3698 30.772 5.95026
11.3675 30.7636 5.9208
11.3628 30.7591 5.9041
11.3559 30.751 5.88333
11.3529 30.7463 5.86597
11.3497 30.7464 5.84292
11.3437 30.7403 5.82462
11.4836 31.2183 6.71363
11.4798 31.198 6.70555
11.5046 31.0269 6.73753
11.4855 31.0379 6.71638
11.4659 31.0452 6.65006
11.5835 31.0019 6.76045
10.4754 28.8017 6.44027
10.578 28.9381 6.53075
10.6027 28.9532 6.54973
10.6589 29.0235 6.60491
10.6663 29.0605 6.61198
10.6802 29.1096 6.61523
10.6872 29.1796 6.61667
10.6843 29.2591 6.61686
10.6911 29.3576 6.59725
10.6914 29.372 6.59067
10.5402 28.9037 6.51004
10.5593 28.9247 6.52112
10.5144 28.8658 6.4867
10.6759 28.9487 6.62106
10.6398 28.9792 6.58887
9.97233 30.3426 7.09634
9.96962 30.3492 7.07054
9.96157 30.3546 7.04404
9.96023 30.3622 7.02583
9.95503 30.3694 7.00494
9.95095 30.3746 6.98395
9.94996 30.3827 6.96225
9.94672 30.3873 6.94806
9.94475 30.3939 6.92957
9.94028 30.4029 6.90627
9.93867 30.4112 6.86887
9.93702 30.416 6.84898
9.93537 30.4203 6.83227
9.93378 30.4238 6.81018
9.93269 30.4273 6.78243
9.92667 30.432 6.73616
9.92264 30.4385 6.68713
9.91932 30.4401 6.66234
9.91194 30.4453 6.61111
9.9053 30.4543 6.57595
9.90279 30.4589 6.55603
9.89781 30.4663 6.52482
9.89383 30.4696 6.50798
9.89021 30.4734 6.49321
9.88347 30.4783 6.46486
9.87848 30.4816 6.44484
9.8739 30.4846 6.42647
9.86963 30.4877 6.40951
9.86351 30.4919 6.39148
9.85736 30.4958 6.36345
9.85098 30.4992 6.34327
9.84668 30.5025 6.32653
9.83964 30.5077 6.30625
9.83452 30.5098 6.28353
9.83155 30.5129 6.26812
9.82569 30.5165 6.25139
9.82102 30.5199 6.23705
9.81776 30.5224 6.22227
9.8128 30.5257 6.20193
9.80945 30.5283 6.18572
9.80501 30.5314 6.16405
9.80164 30.5348 6.15035
9.79799 30.5364 6.13455
9.79397 30.539 6.11459
9.79007 30.5422 6.09639
9.78594 30.5456 6.07743
9.78317 30.5484 6.06296
9.78103 30.5516 6.04657
9.77626 30.5558 6.0202
9.77319 30.5595 6.00092
9.76986 30.5634 5.97684
9.76694 30.5666 5.95918
9.76313 30.5697 5.93894
9.75782 30.5745 5.91456
9.757 30.5764 5.90005
9.75487 30.5818 5.87966
9.75147 30.5869 5.85424
9.74909 30.5899 5.83231
9.74565 30.5931 5.81353
9.74478 30.6001 5.77214
9.74277 30.6048 5.74481
9.7416 30.6081 5.72791
9.74045 30.6116 5.7115
9.7392 30.6157 5.69428
9.73837 30.6175 5.67937
9.73687 30.6217 5.65721
9.735 30.6254 5.6352
9.7307 30.6349 5.59319
9.72794 30.6418 5.57266
9.72536 30.6474 5.55743
9.72091 30.6563 5.53647
9.71596 30.6648 5.5229
9.71128 30.673 5.50546
9.70651 30.6809 5.48606
9.70171 30.6883 5.46402
9.69679 30.6954 5.44009
9.69156 30.7023 5.41612
9.68592 30.7091 5.39316
9.67886 30.7113 5.33654
10.481 29.0932 6.76981
10.5327 29.1655 6.76041
10.5484 29.1874 6.75972
10.5655 29.2092 6.75233
10.583 29.2366 6.73265
10.637 29.2878 6.68811
10.6674 29.3458 6.61724
10.5123 29.1364 6.76142
9.71679 28.6719 7.01866
9.81536 28.8036 6.9614
9.81744 28.8203 6.95585
9.81898 28.8381 6.9487
9.82783 28.8793 6.93474
9.85247 28.9492 6.90846
9.89038 29.0218 6.89434
9.89533 29.0363 6.89128
9.91253 29.0693 6.88326
9.93154 29.109 6.87792
9.96746 29.1665 6.86159
9.99032 29.2072 6.85126
10.0288 29.261 6.82996
10.0875 29.3473 6.79943
10.1084 29.3842 6.78354
10.1258 29.4065 6.76956
10.1406 29.432 6.75421
10.1563 29.4574 6.73358
10.1795 29.5034 6.70539
10.1946 29.5419 6.68491
10.2157 29.5756 6.65845
10.2313 29.604 6.63844
10.2393 29.6154 6.62748
10.2546 29.6347 6.61232
10.2639 29.6456 6.60459
10.2964 29.681 6.56082
10.3254 29.7111 6.52528
10.3608 29.7485 6.482
9.80764 28.7394 6.97814
9.81279 28.7587 6.97629
9.81573 28.6878 6.99859
9.74753 28.7288 7.01086
10.7722 29.5899 6.85188
10.7593 29.5732 6.81732
10.7112 29.48 6.64496
10.7516 29.5274 6.75686
10.7398 29.5027 6.7121
10.7553 29.5516 6.78877
11.6673 30.8494 6.04058
11.5363 30.8243 6.00165
11.4406 30.8031 5.98534
11.5987 30.8243 6.02168
11.4932 30.8101 5.99663
11.7524 29.4918 9.69968
8.72814 33.2718 8.85844
13.1009 31.1718 6.73151
13.0855 31.135 6.7118
12.661 28.928 6.59737
1 0
523 1
3 2
528 3
5 4
6 5
529 6
531 7
9 8
10 9
520 10
12 11
13 12
14 13
15 14
16 15
17 16
18 17
19 18
534 19
21 20
22 21
23 22
24 23
25 24
26 25
27 26
28 27
29 28
30 29
31 30
32 31
33 32
554 33
35 34
36 35
37 36
38 37
39 38
40 39
41 40
42 41
43 42
44 43
45 44
46 45
47 46
48 47
49 48
50 49
51 50
52 51
53 52
54 53
55 54
56 55
57 56
58 57
59 58
60 59
61 60
62 61
63 62
64 63
65 64
66 65
67 66
68 67
69 68
70 69
71 70
72 71
73 72
74 73
75 74
76 75
77 76
78 77
79 78
80 79
81 80
82 81
83 82
84 83
85 84
86 85
87 86
88 87
89 88
90 89
91 90
92 91
93 92
94 93
95 94
96 95
97 96
98 97
99 98
100 99
101 100
102 101
103 102
104 103
105 104
106 105
107 106
108 107
109 108
110 109
111 110
112 111
113 112
114 113
115 114
116 115
117 116
118 117
119 118
120 119
121 120
122 121
123 122
124 123
125 124
126 125
127 126
128 127
129 128
130 129
131 130
132 131
133 132
134 133
135 134
136 135
137 136
138 137
139 138
140 139
141 140
142 141
143 142
144 143
145 144
146 145
147 146
148 147
149 148
150 149
151 150
152 151
153 152
154 153
155 154
156 155
157 156
158 157
159 158
160 159
161 160
162 161
163 162
164 163
165 164
166 165
167 166
168 167
169 168
170 169
171 170
172 171
173 172
174 173
175 174
176 175
177 176
178 177
179 178
180 179
181 180
182 181
183 182
184 183
185 184
186 185
187 186
188 187
189 188
190 189
191 190
192 191
193 192
194 193
195 194
196 195
197 196
198 197
199 198
200 199
201 200
202 201
203 202
204 203
205 204
206 205
1398 206
208 207
209 208
210 209
211 210
212 211
213 212
214 213
215 214
216 215
217 216
218 217
219 218
220 219
221 220
222 221
223 222
224 223
225 224
226 225
227 226
228 227
229 228
230 229
231 230
232 231
233 232
234 233
235 234
236 235
237 236
238 237
239 238
240 239
241 240
242 241
243 242
244 243
245 244
246 245
247 246
248 247
249 248
250 249
251 250
252 251
253 252
254 253
255 254
256 255
257 256
258 257
259 258
260 259
261 260
262 261
263 262
264 263
265 264
266 265
267 266
268 267
269 268
270 269
271 270
272 271
273 272
274 273
275 274
276 275
1572 276
278 277
279 278
280 279
281 280
282 281
283 282
284 283
285 284
286 285
287 286
288 287
289 288
290 289
291 290
292 291
2723 292
294 293
295 294
296 295
297 296
298 297
299 298
300 299
301 300
302 301
303 302
304 303
305 304
306 305
307 306
308 307
309 308
310 309
311 310
312 311
313 312
314 313
315 314
316 315
317 316
318 317
319 318
320 319
321 320
322 321
323 322
324 323
325 324
326 325
327 326
328 327
329 328
330 329
331 330
332 331
333 332
334 333
335 334
336 335
337 336
338 337
339 338
340 339
341 340
342 341
343 342
344 343
345 344
346 345
347 346
348 347
349 348
350 349
351 350
352 351
353 352
354 353
355 354
356 355
357 356
358 357
359 358
360 359
361 360
362 361
363 362
364 363
365 364
366 365
367 366
368 367
369 368
370 369
371 370
372 371
373 372
374 373
375 374
376 375
377 376
378 377
379 378
380 379
381 380
382 381
383 382
384 383
385 384
386 385
387 386
388 387
389 388
390 389
391 390
392 391
393 392
394 393
395 394
396 395
397 396
398 397
399 398
400 399
401 400
402 401
403 402
404 403
405 404
406 405
407 406
408 407
409 408
410 409
411 410
412 411
413 412
414 413
415 414
416 415
417 416
418 417
419 418
420 419
421 420
422 421
423 422
424 423
425 424
426 425
427 426
428 427
429 428
430 429
431 430
432 431
433 432
434 433
435 434
436 435
437 436
438 437
439 438
440 439
441 440
442 441
443 442
444 443
445 444
446 445
447 446
448 447
449 448
450 449
451 450
452 451
453 452
454 453
455 454
456 455
457 456
458 457
459 458
460 459
461 460
462 461
463 462
464 463
465 464
466 465
467 466
468 467
469 468
470 469
471 470
472 471
473 472
474 473
475 474
476 475
477 476
478 477
479 478
480 479
481 480
482 481
483 482
484 483
485 484
486 485
487 486
488 487
489 488
490 489
491 490
492 491
493 492
494 493
495 494
496 495
497 496
498 497
499 498
500 499
501 500
502 501
503 502
504 503
505 504
506 505
507 506
508 507
509 508
510 509
511 510
512 511
514 513
515 514
516 515
517 516
518 517
519 518
520 519
11 520
524 521
4 522
2 523
528 524
526 525
513 526
514 527
522 528
530 529
7 530
8 531
536 532
19 533
20 534
533 535
535 536
538 537
539 538
555 539
541 540
556 541
543 542
544 543
545 544
546 545
547 546
548 547
549 548
550 549
551 550
552 551
553 552
554 553
34 554
540 555
557 556
542 557
559 558
687 559
561 560
562 561
563 562
701 563
730 564
566 565
567 566
568 567
569 568
570 569
571 570
572 571
573 572
574 573
575 574
576 575
577 576
578 577
579 578
580 579
581 580
582 581
583 582
584 583
585 584
586 585
587 586
588 587
589 588
590 589
591 590
592 591
593 592
594 593
595 594
596 595
597 596
598 597
599 598
600 599
601 600
602 601
603 602
604 603
605 604
606 605
607 606
608 607
609 608
610 609
611 610
612 611
613 612
84 613
558 614
616 615
617 616
618 617
619 618
620 619
621 620
622 621
623 622
624 623
625 624
626 625
627 626
628 627
629 628
630 629
631 630
632 631
633 632
634 633
635 634
636 635
637 636
638 637
639 638
640 639
641 640
642 641
643 642
644 643
645 644
646 645
647 646
648 647
649 648
650 649
651 650
652 651
653 652
654 653
655 654
656 655
657 656
658 657
659 658
660 659
661 660
662 661
663 662
664 663
665 664
666 665
667 666
668 667
669 668
670 669
671 670
672 671
673 672
674 673
675 674
676 675
677 676
678 677
679 678
680 679
681 680
682 681
683 682
684 683
685 684
686 685
104 686
560 687
696 688
690 689
700 690
692 691
693 692
694 693
695 694
571 695
697 696
689 697
560 698
719 699
691 700
564 701
703 702
704 703
705 704
706 705
871 706
708 707
709 708
710 709
711 710
712 711
713 712
714 713
715 714
716 715
635 716
718 717
700 718
717 719
721 720
722 721
723 722
880 723
725 724
726 725
727 726
728 727
712 728
731 729
731 730
565 731
736 732
870 733
880 734
881 735
737 736
733 737
739 738
740 739
868 740
742 741
743 742
744 743
745 744
746 745
747 746
748 747
749 748
750 749
751 750
752 751
753 752
754 753
755 754
756 755
757 756
758 757
759 758
846 759
761 760
762 761
763 762
764 763
765 764
766 765
767 766
768 767
769 768
770 769
771 770
772 771
773 772
774 773
775 774
776 775
777 776
778 777
779 778
780 779
781 780
782 781
783 782
784 783
785 784
786 785
787 786
788 787
789 788
790 789
791 790
792 791
793 792
794 793
795 794
796 795
797 796
798 797
799 798
800 799
801 800
802 801
803 802
804 803
805 804
806 805
807 806
808 807
809 808
810 809
811 810
812 811
813 812
814 813
815 814
816 815
817 816
818 817
819 818
820 819
821 820
822 821
823 822
824 823
122 824
826 825
828 826
869 827
740 828
830 829
831 830
832 831
833 832
834 833
980 834
836 835
837 836
838 837
839 838
840 839
841 840
842 841
843 842
844 843
845 844
846 845
760 846
848 847
829 848
850 849
851 850
852 851
853 852
854 853
855 854
856 855
857 856
858 857
859 858
860 859
861 860
862 861
863 862
864 863
865 864
866 865
867 866
641 867
869 868
741 869
734 870
872 871
707 872
874 873
875 874
876 875
877 876
878 877
726 878
880 879
735 880
724 881
883 882
896 883
847 884
886 885
944 886
960 887
889 888
890 889
891 890
892 891
580 892
885 893
569 894
885 895
873 896
898 897
899 898
900 899
901 900
902 901
903 902
904 903
905 904
906 905
907 906
908 907
909 908
910 909
911 910
912 911
913 912
914 913
915 914
916 915
1002 916
918 917
919 918
920 919
921 920
922 921
923 922
924 923
925 924
926 925
927 926
928 927
74 928
930 929
931 930
932 931
933 932
934 933
935 934
936 935
937 936
938 937
939 938
940 939
941 940
942 941
943 942
68 943
887 944
725 945
945 946
968 947
949 948
950 949
951 950
952 951
953 952
954 953
1007 954
1008 955
957 956
958 957
959 958
756 959
888 960
962 961
969 962
964 963
965 964
900 965
988 966
835 967
971 968
948 969
977 970
970 971
973 972
990 973
975 974
1151 975
856 976
962 977
979 978
983 979
981 980
835 981
983 982
932 983
985 984
986 985
987 986
750 987
989 988
967 989
974 990
1170 991
2775 992
994 993
995 994
996 995
997 996
998 997
999 998
1000 999
1001 1000
1002 1001
917 1002
836 1003
1005 1004
1006 1005
1007 1006
955 1007
956 1008
1150 1009
1172 1010
1225 1011
1226 1012
1041 1013
1015 1014
1016 1015
1017 1016
1018 1017
1019 1018
1020 1019
1021 1020
1022 1021
1023 1022
1024 1023
1025 1024
1026 1025
1027 1026
1028 1027
1029 1028
1030 1029
1031 1030
1032 1031
1033 1032
1034 1033
776 1034
1036 1035
1037 1036
1038 1037
1039 1038
1040 1039
1041 1040
1014 1041
1043 1042
1222 1043
1222 1044
1046 1045
1047 1046
939 1047
1049 1048
1173 1049
1222 1050
1052 1051
1176 1052
1054 1053
1055 1054
1056 1055
1230 1056
1058 1057
1059 1058
1060 1059
1061 1060
1062 1061
1063 1062
1064 1063
1065 1064
1066 1065
1067 1066
1282 1067
1069 1068
1070 1069
1071 1070
1072 1071
1073 1072
1074 1073
1075 1074
1076 1075
1077 1076
1078 1077
1079 1078
1080 1079
1081 1080
1082 1081
1083 1082
1084 1083
1085 1084
1086 1085
1087 1086
1088 1087
1089 1088
1090 1089
1091 1090
1092 1091
1093 1092
1094 1093
1095 1094
1096 1095
1097 1096
1098 1097
1099 1098
1100 1099
1101 1100
1102 1101
1103 1102
1104 1103
1105 1104
1106 1105
1107 1106
1108 1107
1109 1108
1110 1109
1111 1110
1112 1111
1113 1112
1114 1113
1115 1114
1116 1115
1117 1116
1118 1117
1119 1118
1120 1119
1121 1120
1122 1121
1123 1122
1124 1123
1125 1124
1126 1125
1127 1126
1128 1127
1129 1128
1130 1129
1131 1130
1132 1131
1133 1132
1134 1133
1135 1134
1136 1135
1137 1136
1138 1137
1139 1138
1140 1139
1141 1140
1142 1141
1143 1142
1144 1143
1145 1144
1146 1145
1147 1146
138 1147
1149 1148
1172 1149
1010 1150
976 1151
1042 1152
1154 1153
1227 1154
1156 1155
1157 1156
940 1157
1159 1158
1160 1159
1161 1160
1162 1161
1260 1162
1164 1163
1165 1164
1166 1165
1167 1166
1168 1167
1169 1168
1062 1169
992 1170
1172 1171
1011 1172
1224 1173
1050 1174
1053 1175
1053 1176
1256 1177
1179 1178
1269 1179
1181 1180
1182 1181
1183 1182
1184 1183
1185 1184
1186 1185
1187 1186
1276 1187
1189 1188
1190 1189
1191 1190
1192 1191
1193 1192
1194 1193
1195 1194
1196 1195
1197 1196
1198 1197
1199 1198
1200 1199
1201 1200
1202 1201
1203 1202
1204 1203
1205 1204
1206 1205
1207 1206
1208 1207
1209 1208
1210 1209
1211 1210
1212 1211
1213 1212
1214 1213
1215 1214
1216 1215
1217 1216
1218 1217
1219 1218
1220 1219
1221 1220
793 1221
1223 1222
1045 1223
1174 1224
1012 1225
1013 1226
1155 1227
1231 1228
1230 1229
1057 1230
1229 1231
1233 1232
1234 1233
1235 1234
1236 1235
1237 1236
1238 1237
1239 1238
1240 1239
1241 1240
1325 1241
1243 1242
1244 1243
1245 1244
1246 1245
1247 1246
1248 1247
1249 1248
1250 1249
1251 1250
1252 1251
1253 1252
1254 1253
1255 1254
1080 1255
1178 1256
1259 1257
1257 1258
958 1259
1163 1260
1262 1261
1263 1262
1264 1263
1265 1264
1266 1265
1237 1266
1273 1267
1265 1268
1180 1269
1180 1270
1272 1271
1182 1272
1268 1273
1275 1274
1276 1275
1188 1276
1278 1277
1318 1278
1280 1279
1281 1280
1282 1281
1068 1282
1277 1283
1061 1284
1283 1285
1287 1286
1298 1287
1327 1288
1328 1289
1321 1290
1292 1291
1293 1292
1294 1293
1069 1294
1286 1295
1319 1296
1286 1297
1288 1298
1300 1299
1339 1300
1302 1301
1303 1302
1304 1303
1305 1304
1306 1305
1307 1306
1308 1307
1309 1308
1310 1309
1311 1310
1312 1311
1313 1312
1314 1313
1315 1314
1316 1315
1317 1316
1254 1317
1319 1318
1279 1319
1340 1320
1291 1321
1323 1322
1324 1323
1325 1324
1326 1325
1242 1326
1289 1327
1329 1328
1290 1329
1331 1330
1332 1331
1333 1332
1334 1333
1335 1334
1244 1335
1333 1336
1330 1337
1337 1338
1301 1339
1341 1340
1321 1341
1334 1342
1344 1343
1348 1344
1348 1345
1350 1346
1351 1347
1071 1348
1346 1349
1352 1350
1343 1351
1347 1352
1354 1353
1355 1354
1356 1355
1357 1356
1358 1357
1359 1358
1360 1359
1361 1360
1362 1361
1363 1362
1364 1363
1365 1364
1366 1365
1367 1366
1368 1367
1369 1368
1370 1369
1371 1370
1372 1371
1373 1372
1374 1373
1375 1374
1376 1375
1377 1376
1378 1377
1379 1378
1380 1379
1381 1380
1382 1381
1383 1382
1384 1383
1385 1384
1386 1385
1387 1386
1388 1387
1389 1388
1390 1389
1391 1390
1392 1391
1393 1392
1394 1393
1395 1394
1396 1395
1397 1396
1398 1397
207 1398
1400 1399
1593 1400
1402 1401
1403 1402
1602 1403
1405 1404
1406 1405
1407 1406
1641 1407
1641 1408
1410 1409
1411 1410
1412 1411
1413 1412
1414 1413
1415 1414
1416 1415
1417 1416
1418 1417
1419 1418
1420 1419
1421 1420
1422 1421
1423 1422
1424 1423
1425 1424
1426 1425
1427 1426
1428 1427
1429 1428
1430 1429
1431 1430
1432 1431
1433 1432
1434 1433
1435 1434
1436 1435
1437 1436
1438 1437
1439 1438
1440 1439
1441 1440
1442 1441
1443 1442
1444 1443
1445 1444
1446 1445
2170 1446
1448 1447
1449 1448
1450 1449
1451 1450
1452 1451
1453 1452
1454 1453
1455 1454
1456 1455
1457 1456
1458 1457
1459 1458
1460 1459
1461 1460
1462 1461
1463 1462
1464 1463
1465 1464
1466 1465
1467 1466
1468 1467
1469 1468
1470 1469
1471 1470
1472 1471
1473 1472
1474 1473
1475 1474
1476 1475
1477 1476
1478 1477
1479 1478
1480 1479
1481 1480
1482 1481
1483 1482
1484 1483
1485 1484
1486 1485
1487 1486
1488 1487
1489 1488
1490 1489
1491 1490
1492 1491
1493 1492
1494 1493
1495 1494
1496 1495
1497 1496
1498 1497
1499 1498
1500 1499
1501 1500
1502 1501
1503 1502
1504 1503
1505 1504
1506 1505
1507 1506
1508 1507
1509 1508
1510 1509
1511 1510
1512 1511
1513 1512
1514 1513
1515 1514
1516 1515
1517 1516
1518 1517
1519 1518
1520 1519
1521 1520
1522 1521
1523 1522
1524 1523
1525 1524
1526 1525
1527 1526
1528 1527
1529 1528
1530 1529
1531 1530
1532 1531
1533 1532
1534 1533
1535 1534
1536 1535
1537 1536
1538 1537
1539 1538
1540 1539
1541 1540
1542 1541
1543 1542
1544 1543
1545 1544
1546 1545
1547 1546
1548 1547
1549 1548
1550 1549
1551 1550
1552 1551
1553 1552
1554 1553
1555 1554
1556 1555
1557 1556
1558 1557
1559 1558
1560 1559
1561 1560
1562 1561
1563 1562
1564 1563
1565 1564
1566 1565
1567 1566
1568 1567
1569 1568
1570 1569
1571 1570
1572 1571
277 1572
1599 1573
1575 1574
1576 1575
1577 1576
1578 1577
1579 1578
1580 1579
1581 1580
1582 1581
1583 1582
1584 1583
1585 1584
1586 1585
1587 1586
1588 1587
1589 1588
1590 1589
1591 1590
1592 1591
1423 1592
1401 1593
1595 1594
1607 1595
1608 1596
1578 1597
1594 1598
1600 1599
1574 1600
1403 1601
1404 1602
1604 1603
1605 1604
1606 1605
1579 1606
1596 1607
1609 1608
1597 1609
1406 1610
1612 1611
1852 1612
1614 1613
1615 1614
1616 1615
1617 1616
1618 1617
1619 1618
1857 1619
1621 1620
1622 1621
1623 1622
1624 1623
1625 1624
1626 1625
1627 1626
1628 1627
1629 1628
1630 1629
1631 1630
1632 1631
1633 1632
1634 1633
1635 1634
1970 1635
1637 1636
2176 1637
1432 1638
1642 1639
1407 1640
1851 1641
2776 1642
1644 1643
1645 1644
1862 1645
1647 1646
1648 1647
1649 1648
1650 1649
1651 1650
1652 1651
1653 1652
1654 1653
1655 1654
1656 1655
1657 1656
1658 1657
1659 1658
1660 1659
1661 1660
1662 1661
1663 1662
1664 1663
1665 1664
1666 1665
2237 1666
1668 1667
1669 1668
1670 1669
1671 1670
1672 1671
1673 1672
1674 1673
1675 1674
1676 1675
1677 1676
1678 1677
1679 1678
1680 1679
1681 1680
1682 1681
1683 1682
1684 1683
1685 1684
1686 1685
1687 1686
1910 1687
1910 1688
1690 1689
1691 1690
1692 1691
1693 1692
1694 1693
1695 1694
1696 1695
1697 1696
1698 1697
1699 1698
1700 1699
1701 1700
1702 1701
1703 1702
1704 1703
1705 1704
1706 1705
1707 1706
1708 1707
1710 1708
1710 1709
1711 1710
1712 1711
1713 1712
1714 1713
1715 1714
1716 1715
1717 1716
1718 1717
1719 1718
1720 1719
1721 1720
1722 1721
1723 1722
1724 1723
1725 1724
1726 1725
1727 1726
1728 1727
1729 1728
1730 1729
1731 1730
1732 1731
1733 1732
1734 1733
1735 1734
1736 1735
1737 1736
1738 1737
1739 1738
1740 1739
1741 1740
1742 1741
1743 1742
1744 1743
1745 1744
1746 1745
1747 1746
1748 1747
1749 1748
1750 1749
1751 1750
1752 1751
1753 1752
1754 1753
1755 1754
1756 1755
1757 1756
1758 1757
1759 1758
1760 1759
1761 1760
2623 1761
1763 1762
1764 1763
1765 1764
1766 1765
1767 1766
1768 1767
1769 1768
1770 1769
1771 1770
1772 1771
1773 1772
1774 1773
1775 1774
1776 1775
1777 1776
1778 1777
1779 1778
1780 1779
1781 1780
1782 1781
1783 1782
1784 1783
1785 1784
1786 1785
1787 1786
1788 1787
1789 1788
1790 1789
1791 1790
1792 1791
1793 1792
1794 1793
1795 1794
1796 1795
1797 1796
1798 1797
1799 1798
1800 1799
1801 1800
1802 1801
1803 1802
1804 1803
1805 1804
1806 1805
1807 1806
1808 1807
1809 1808
1810 1809
1811 1810
1812 1811
1813 1812
1814 1813
1815 1814
1816 1815
1817 1816
1818 1817
1819 1818
1820 1819
1821 1820
1822 1821
1823 1822
1824 1823
1825 1824
1826 1825
1827 1826
1828 1827
1829 1828
1830 1829
1831 1830
1832 1831
1833 1832
1834 1833
1835 1834
1836 1835
1837 1836
1838 1837
302 1838
1858 1839
1841 1840
1842 1841
1843 1842
1844 1843
1845 1844
1846 1845
1847 1846
1848 1847
1849 1848
1420 1849
1854 1850
1409 1851
1853 1852
1613 1853
2776 1854
1856 1855
1857 1856
1620 1857
1840 1858
1860 1859
1861 1860
1855 1861
1863 1862
1646 1863
1618 1864
1866 1865
1975 1866
1940 1867
1869 1868
1870 1869
1871 1870
1872 1871
1873 1872
1874 1873
1875 1874
1876 1875
1877 1876
2111 1877
1986 1878
2112 1879
1883 1880
2212 1881
1881 1882
1882 1883
1881 1884
1881 1885
1887 1886
1888 1887
1889 1888
1890 1889
1891 1890
1892 1891
1893 1892
1894 1893
1895 1894
1896 1895
1897 1896
1898 1897
1899 1898
1900 1899
1901 1900
1902 1901
1903 1902
1904 1903
1905 1904
1906 1905
1907 1906
1908 1907
1909 1908
1688 1909
1689 1910
1912 1911
1913 1912
1977 1913
1915 1914
1988 1915
1917 1916
1918 1917
1919 1918
1920 1919
1921 1920
1922 1921
1923 1922
1924 1923
1925 1924
1926 1925
1927 1926
1928 1927
1929 1928
1890 1929
1865 1930
1932 1931
1845 1932
1934 1933
2050 1934
1944 1935
1937 1936
1938 1937
1919 1938
1867 1939
1650 1940
1942 1941
1943 1942
1944 1943
1936 1944
1946 1945
1916 1946
1948 1947
1990 1948
1950 1949
1951 1950
2104 1951
1953 1952
1954 1953
2145 1954
1956 1955
2143 1956
1958 1957
1429 1958
1980 1959
1961 1960
1989 1961
2103 1962
2119 1963
1965 1964
1966 1965
1967 1966
1968 1967
1969 1968
1970 1969
1971 1970
1636 1971
1973 1972
1974 1973
1652 1974
1976 1975
1939 1976
1914 1977
1979 1978
1989 1979
1990 1980
1982 1981
1983 1982
1984 1983
1985 1984
1986 1985
1880 1986
1945 1987
1916 1988
1962 1989
1949 1990
1992 1991
1993 1992
1994 1993
1995 1994
2141 1995
1997 1996
1998 1997
1353 1998
1998 1999
1999 2000
2202 2001
2003 2002
2004 2003
2005 2004
2006 2005
2007 2006
2008 2007
2009 2008
2010 2009
2011 2010
2012 2011
2013 2012
2014 2013
2015 2014
2016 2015
2017 2016
2018 2017
2019 2018
2020 2019
2021 2020
2022 2021
2023 2022
2024 2023
2025 2024
2026 2025
2027 2026
2028 2027
2029 2028
2030 2029
2031 2030
2032 2031
2033 2032
2488 2033
2035 2034
2036 2035
2037 2036
2038 2037
2039 2038
2040 2039
2041 2040
2042 2041
2043 2042
1468 2043
2045 2044
2046 2045
1654 2046
2048 2047
2049 2048
1922 2049
1935 2050
2052 2051
2053 2052
2138 2053
2139 2054
1955 2055
2071 2056
2058 2057
2059 2058
2060 2059
2139 2060
2139 2061
2063 2062
2064 2063
2065 2064
1998 2065
2067 2066
2068 2067
2069 2068
2070 2069
2002 2070
2072 2071
2073 2072
2057 2073
2075 2074
2116 2075
2077 2076
2078 2077
2079 2078
2080 2079
2081 2080
2082 2081
2083 2082
2084 2083
2085 2084
2086 2085
2087 2086
2088 2087
2089 2088
2092 2089
2091 2090
2211 2091
2211 2092
2262 2093
2264 2094
2096 2095
2097 2096
2098 2097
2099 2098
2100 2099
2101 2100
1901 2101
2113 2102
1963 2103
2105 2104
1952 2105
2107 2106
2108 2107
2065 2108
2066 2109
2111 2110
2112 2111
1878 2112
2071 2113
2115 2114
2075 2115
2076 2116
1995 2117
2117 2118
1964 2119
2121 2120
2144 2121
2123 2122
2124 2123
2125 2124
2126 2125
2127 2126
2185 2127
2129 2128
2130 2129
2131 2130
2132 2131
2133 2132
2134 2133
2135 2134
2136 2135
2137 2136
2013 2137
2054 2138
2055 2139
2123 2140
1996 2141
2146 2142
1957 2143
2122 2144
2055 2145
2143 2146
2076 2147
2149 2148
2150 2149
2151 2150
2152 2151
2153 2152
2154 2153
2155 2154
2156 2155
2157 2156
2158 2157
2159 2158
2160 2159
2161 2160
2289 2161
2289 2162
2162 2163
2165 2164
2286 2165
2167 2166
2168 2167
2169 2168
2170 2169
1447 2170
2172 2171
2173 2172
2174 2173
1430 2174
2176 2175
1638 2176
2178 2177
2179 2178
2149 2179
1957 2180
2182 2181
2183 2182
2184 2183
2185 2184
2128 2185
2127 2186
2188 2187
2230 2188
2231 2189
2232 2190
2192 2191
2193 2192
2220 2193
2272 2194
2196 2195
2278 2196
2198 2197
2199 2198
2200 2199
2163 2200
1998 2201
2000 2202
2204 2203
2205 2204
2777 2205
2207 2206
2208 2207
2209 2208
2210 2209
2242 2210
2093 2211
2264 2212
2214 2213
2215 2214
2152 2215
2217 2216
2218 2217
2246 2218
2220 2219
2247 2220
2222 2221
2190 2222
2224 2223
2189 2224
2226 2225
2210 2226
2092 2227
2090 2228
2228 2229
2233 2230
2222 2231
2191 2232
2223 2233
2235 2234
2236 2235
1666 2236
1667 2237
2239 2238
2249 2239
2239 2240
2240 2241
2092 2242
2215 2243
2245 2244
2246 2245
2219 2246
2194 2247
2212 2248
2248 2249
2249 2250
2252 2251
2253 2252
2269 2253
2255 2254
2256 2255
2268 2256
2258 2257
2259 2258
1678 2259
2250 2260
2262 2261
2263 2262
2264 2263
2095 2264
2266 2265
2267 2266
2256 2267
2257 2268
2270 2269
2254 2270
2261 2271
2195 2272
2274 2273
2281 2274
2276 2275
2199 2276
2196 2277
2197 2278
2265 2279
2282 2280
2275 2281
2284 2282
2287 2283
2283 2284
2284 2285
2166 2286
2165 2287
2289 2288
2164 2289
2291 2290
2292 2291
2457 2292
2294 2293
2295 2294
2296 2295
2297 2296
2298 2297
2299 2298
2300 2299
2301 2300
2302 2301
2303 2302
2304 2303
2305 2304
2306 2305
2307 2306
2308 2307
2309 2308
2310 2309
2311 2310
2312 2311
2313 2312
2314 2313
2315 2314
2316 2315
2317 2316
2318 2317
2319 2318
2320 2319
2321 2320
2322 2321
2323 2322
2324 2323
2325 2324
2326 2325
2327 2326
2328 2327
2329 2328
2330 2329
2331 2330
2332 2331
2333 2332
2334 2333
2335 2334
2336 2335
2337 2336
2338 2337
2339 2338
2340 2339
2341 2340
2342 2341
2343 2342
2344 2343
2345 2344
2346 2345
2347 2346
2348 2347
2349 2348
2350 2349
2351 2350
2352 2351
2353 2352
2354 2353
2355 2354
2356 2355
2357 2356
2358 2357
2359 2358
2360 2359
2361 2360
2362 2361
2363 2362
2364 2363
2365 2364
2366 2365
2367 2366
2368 2367
2369 2368
2370 2369
2371 2370
2372 2371
2373 2372
2374 2373
2375 2374
2376 2375
2377 2376
2378 2377
2379 2378
2380 2379
2381 2380
2382 2381
2383 2382
2384 2383
2385 2384
2386 2385
2387 2386
2388 2387
2389 2388
2390 2389
2391 2390
2392 2391
2393 2392
2394 2393
2395 2394
2396 2395
2397 2396
2398 2397
2399 2398
2400 2399
2401 2400
2402 2401
2403 2402
2404 2403
2405 2404
2406 2405
2407 2406
2408 2407
2409 2408
2410 2409
2411 2410
2412 2411
2413 2412
2414 2413
2415 2414
2416 2415
2417 2416
2418 2417
2419 2418
2420 2419
2421 2420
2422 2421
2423 2422
2424 2423
2425 2424
2426 2425
2427 2426
2428 2427
2429 2428
2430 2429
2431 2430
2432 2431
2433 2432
2434 2433
2435 2434
2436 2435
2437 2436
2438 2437
2439 2438
2440 2439
2441 2440
2442 2441
2443 2442
2444 2443
2445 2444
1815 2445
2447 2446
2448 2447
2449 2448
2450 2449
2451 2450
2452 2451
2474 2452
2460 2453
2455 2454
2462 2455
2457 2456
2293 2457
2459 2458
2467 2459
2454 2460
2468 2461
2456 2462
2464 2463
2465 2464
2462 2465
2471 2466
2466 2467
2463 2468
2470 2469
2295 2470
2022 2471
2479 2472
2472 2473
2475 2474
1450 2475
2477 2476
2478 2477
2472 2478
2480 2479
2481 2480
2482 2481
2483 2482
2484 2483
2485 2484
2486 2485
2487 2486
2488 2487
2034 2488
2490 2489
2779 2490
2492 2491
2493 2492
2526 2493
2495 2494
2496 2495
2497 2496
2498 2497
2499 2498
2537 2499
2501 2500
2502 2501
2503 2502
2504 2503
2505 2504
2506 2505
2507 2506
2508 2507
2509 2508
2510 2509
2511 2510
2512 2511
2513 2512
2514 2513
2515 2514
2516 2515
2517 2516
2344 2517
2522 2518
2779 2519
2491 2520
2489 2521
2523 2522
2519 2523
2528 2524
2526 2525
2527 2526
2494 2527
2529 2528
2530 2529
2525 2530
2554 2531
2533 2532
2534 2533
2535 2534
2536 2535
2537 2536
2500 2537
2539 2538
2540 2539
2541 2540
2542 2541
2543 2542
2544 2543
2545 2544
2546 2545
2547 2546
2548 2547
2549 2548
2550 2549
2551 2550
2552 2551
2553 2552
1486 2553
2532 2554
2556 2555
2557 2556
2588 2557
2559 2558
2560 2559
2561 2560
2587 2561
2563 2562
2564 2563
2565 2564
2510 2565
2567 2566
2568 2567
2569 2568
2570 2569
2571 2570
2572 2571
2573 2572
2574 2573
2575 2574
2576 2575
2577 2576
2578 2577
2579 2578
2580 2579
2581 2580
2582 2581
2583 2582
1727 2583
2585 2584
2589 2585
2587 2586
2562 2587
2558 2588
2586 2589
2624 2590
2592 2591
2593 2592
2628 2593
2595 2594
2596 2595
2597 2596
2598 2597
2599 2598
2600 2599
2601 2600
2602 2601
2603 2602
2604 2603
2605 2604
2606 2605
2607 2606
2608 2607
2609 2608
2610 2609
2611 2610
2612 2611
2613 2612
2614 2613
2615 2614
2616 2615
2617 2616
2618 2617
2619 2618
2620 2619
2621 2620
2622 2621
2623 2622
1762 2623
2625 2624
2591 2625
2627 2626
2628 2627
2594 2628
2626 2629
2642 2630
2632 2631
2644 2632
2634 2633
2635 2634
2636 2635
2637 2636
2730 2637
2639 2638
2367 2639
2641 2640
2631 2641
2640 2642
2644 2643
2633 2644
2646 2645
2647 2646
2648 2647
2649 2648
2650 2649
2651 2650
2652 2651
2653 2652
2654 2653
2655 2654
2656 2655
2657 2656
2658 2657
2659 2658
2660 2659
2661 2660
2662 2661
2663 2662
2664 2663
2665 2664
2666 2665
2667 2666
2668 2667
2669 2668
2670 2669
2671 2670
2672 2671
2673 2672
2674 2673
2675 2674
2676 2675
2677 2676
2678 2677
2679 2678
2680 2679
2681 2680
2682 2681
2683 2682
2684 2683
2685 2684
2686 2685
2687 2686
2688 2687
2689 2688
2690 2689
2691 2690
2692 2691
2693 2692
2694 2693
2695 2694
2696 2695
2697 2696
2698 2697
2699 2698
2700 2699
2701 2700
2702 2701
2703 2702
2704 2703
2705 2704
2706 2705
2707 2706
2708 2707
2709 2708
2710 2709
2711 2710
2712 2711
2713 2712
2714 2713
2715 2714
2716 2715
2717 2716
2718 2717
2719 2718
2720 2719
2721 2720
2722 2721
291 2722
293 2723
2731 2724
2726 2725
2727 2726
2728 2727
2729 2728
2730 2729
2638 2730
2725 2731
2763 2732
2734 2733
2735 2734
2736 2735
2737 2736
2738 2737
2739 2738
2740 2739
2741 2740
2742 2741
2743 2742
2744 2743
2745 2744
2746 2745
2747 2746
2748 2747
2749 2748
2750 2749
2751 2750
2752 2751
2753 2752
2754 2753
2755 2754
2756 2755
2757 2756
2758 2757
2759 2758
2384 2759
2761 2760
2733 2761
2760 2762
2760 2763
2765 2764
2769 2765
2370 2766
2768 2767
2766 2768
2767 2769
2773 2770
2774 2771
2616 2772
2771 2773
2772 2774
993 2775
1640 2776
2778 2777
2206 2778
2520 2779
